<?xml version="1.0" encoding="UTF-8"?>
<svg version="1.1" xmlns="http://www.w3.org/2000/svg" width="96" height="96">
<path d="M0 0 C31.68 0 63.36 0 96 0 C96 31.68 96 63.36 96 96 C64.32 96 32.64 96 0 96 C0 64.32 0 32.64 0 0 Z " fill="#B78E68" transform="translate(0,0)"/>
<path d="M0 0 C0.66 0 1.32 0 2 0 C2 3.3 2 6.6 2 10 C3.381875 10.268125 4.76375 10.53625 6.1875 10.8125 C9.94705191 11.64729814 12.87579954 12.65684966 16 15 C17.60725635 18.21451269 17.05748185 21.43612536 17 25 C14.69 25 12.38 25 10 25 C10 26.65 10 28.3 10 30 C9.22914062 30.12117188 8.45828125 30.24234375 7.6640625 30.3671875 C6.66117188 30.53476562 5.65828125 30.70234375 4.625 30.875 C3.12839844 31.11863281 3.12839844 31.11863281 1.6015625 31.3671875 C-1.1425115 31.7958802 -1.1425115 31.7958802 -3 34 C-3.64767793 36.57061311 -3.64767793 36.57061311 -4 39 C-5.65 38.67 -7.3 38.34 -9 38 C-9 43.61 -9 49.22 -9 55 C-14.625 55 -14.625 55 -18 52 C-17.65066406 52.54269531 -17.30132813 53.08539063 -16.94140625 53.64453125 C-16.48636719 54.35996094 -16.03132813 55.07539062 -15.5625 55.8125 C-14.88380859 56.87404297 -14.88380859 56.87404297 -14.19140625 57.95703125 C-13 60 -13 60 -12 63 C-10.12612784 63.80212628 -10.12612784 63.80212628 -7.9375 64.1875 C-6.83728516 64.42533203 -6.83728516 64.42533203 -5.71484375 64.66796875 C-5.14894531 64.77753906 -4.58304688 64.88710937 -4 65 C-4 66.98 -4 68.96 -4 71 C-4.99 71.495 -4.99 71.495 -6 72 C-8.625 71.0625 -8.625 71.0625 -11 70 C-11 69.01 -11 68.02 -11 67 C-12.65 66.67 -14.3 66.34 -16 66 C-16 64.68 -16 63.36 -16 62 C-16.66 62 -17.32 62 -18 62 C-17.87431641 63.06541016 -17.87431641 63.06541016 -17.74609375 64.15234375 C-17.64425781 65.07144531 -17.54242187 65.99054688 -17.4375 66.9375 C-17.33308594 67.85402344 -17.22867187 68.77054687 -17.12109375 69.71484375 C-17.08113281 70.46894531 -17.04117187 71.22304687 -17 72 C-18 73 -18 73 -21.0625 73.0625 C-22.031875 73.041875 -23.00125 73.02125 -24 73 C-24 72.34 -24 71.68 -24 71 C-24.66 71 -25.32 71 -26 71 C-24.07821328 73.13531858 -22.38137505 74.37117497 -19.875 75.875 C-17 78 -17 78 -16.125 80.75 C-16.08375 81.4925 -16.0425 82.235 -16 83 C-14.3603125 83.185625 -14.3603125 83.185625 -12.6875 83.375 C-9 84 -9 84 -6 86 C-6 86.99 -6 87.98 -6 89 C-5.37351563 88.97679688 -4.74703125 88.95359375 -4.1015625 88.9296875 C-3.28429688 88.91164063 -2.46703125 88.89359375 -1.625 88.875 C-0.81289063 88.85179688 -0.00078125 88.82859375 0.8359375 88.8046875 C3 89 3 89 5 91 C7.06741269 91.09521827 7.06741269 91.09521827 9.5 90.75 C10.469375 90.63914062 11.43875 90.52828125 12.4375 90.4140625 C14.2009375 90.20910156 14.2009375 90.20910156 16 90 C17.54139276 89.85895311 19.08308345 89.72113818 20.625 89.5859375 C22.25004943 89.43281536 23.87504952 89.27916864 25.5 89.125 C26.28955078 89.05893555 27.07910156 88.99287109 27.89257812 88.92480469 C32.14568978 88.4936221 34.1039271 88.03970405 37 85 C37.99 84.67 38.98 84.34 40 84 C41.00300564 81.14728157 41.00300564 81.14728157 41.625 77.75 C41.86476563 76.61046875 42.10453125 75.4709375 42.3515625 74.296875 C42.56554687 73.20890625 42.77953125 72.1209375 43 71 C43.2165625 70.08089844 43.433125 69.16179687 43.65625 68.21484375 C44.23372304 65.9270804 44.23372304 65.9270804 42.875 63.8125 C41.64164102 59.84813185 42.91650884 57.23124246 44.2734375 53.40234375 C45.19299266 50.78018085 45.19299266 50.78018085 45 47 C44.34 47 43.68 47 43 47 C43 46.34 43 45.68 43 45 C46.3 45 49.6 45 53 45 C53 60.84 53 76.68 53 93 C21.32 93 -10.36 93 -43 93 C-43 76.5 -43 60 -43 43 C-29.5 43 -29.5 43 -24 44 C-24.103125 42.9275 -24.20625 41.855 -24.3125 40.75 C-24.35222065 33.33547905 -20.29527121 26.46735471 -17 20 C-17.66 19.67 -18.32 19.34 -19 19 C-16.56680171 16.05454944 -14.67586393 15.67713283 -11 15 C-10.67 14.34 -10.34 13.68 -10 13 C-8.68 13 -7.36 13 -6 13 C-5.7525 12.154375 -5.505 11.30875 -5.25 10.4375 C-3.86026373 6.61572526 -2.08879162 3.48131937 0 0 Z " fill="#DFB68B" transform="translate(43,3)"/>
<path d="M0 0 C3.14063829 0.20046627 5.27660943 0.45122095 7.8125 2.375 C9 4 9 4 10 7 C10.66 6.67 11.32 6.34 12 6 C14.6723621 5.86584528 17.32250488 5.95681459 20 6 C20.1875 8.3125 20.1875 8.3125 20 11 C19.02149805 12.02104551 18.02019573 13.0206121 17 14 C16.27802838 16.60611077 16.27802838 16.60611077 16 19 C17.3921875 18.01 17.3921875 18.01 18.8125 17 C22 15 22 15 25 15 C25.33 13.68 25.66 12.36 26 11 C26.99 11 27.98 11 29 11 C29 10.34 29 9.68 29 9 C29.99 9 30.98 9 32 9 C31.49202991 13.3177458 30.80317221 17.03302114 29 21 C28.34 21 27.68 21 27 21 C26.79375 21.78375 26.5875 22.5675 26.375 23.375 C25 26 25 26 21.875 27.3125 C20.92625 27.539375 19.9775 27.76625 19 28 C19 28.66 19 29.32 19 30 C18.01 30.66 17.02 31.32 16 32 C14.79549696 34.55183404 14.79549696 34.55183404 14 37 C15.96080624 36.21447823 17.91857816 35.42137877 19.875 34.625 C20.96554688 34.18414062 22.05609375 33.74328125 23.1796875 33.2890625 C26.06329362 32.16948662 26.06329362 32.16948662 28 30 C28.99 30 29.98 30 31 30 C31 28.68 31 27.36 31 26 C34.33333333 24.33333333 37.66666667 22.66666667 41 21 C41 22.65 41 24.3 41 26 C40.34 26 39.68 26 39 26 C38.67 28.31 38.34 30.62 38 33 C38.66 33 39.32 33 40 33 C40.08126087 35.08268593 40.13930839 37.16628658 40.1875 39.25 C40.23970703 40.99023438 40.23970703 40.99023438 40.29296875 42.765625 C39.97927287 46.22882755 39.46132762 47.59230906 37 50 C36.34 50 35.68 50 35 50 C35 50.66 35 51.32 35 52 C34.030625 52.474375 33.06125 52.94875 32.0625 53.4375 C29.19522563 54.70193947 29.19522563 54.70193947 28 56 C25.31137336 56.39993686 22.63647783 56.75134543 19.9375 57.0625 C19.17888672 57.15337891 18.42027344 57.24425781 17.63867188 57.33789062 C15.7595699 57.5624374 13.87983905 57.78170978 12 58 C12 57.34 12 56.68 12 56 C12.66 56 13.32 56 14 56 C14 54.68 14 53.36 14 52 C9.05 52.495 9.05 52.495 4 53 C4.33 54.32 4.66 55.64 5 57 C2.03 57 -0.94 57 -4 57 C-4 56.01 -4 55.02 -4 54 C-4.68707031 53.85304687 -5.37414062 53.70609375 -6.08203125 53.5546875 C-8.84112694 52.86787398 -11.39383471 52.14178903 -14 51 C-15.6875 48.0625 -15.6875 48.0625 -17 45 C-19.23938922 43.33572665 -21.47895436 42.23673937 -24 41 C-24 40.34 -24 39.68 -24 39 C-23.34 39 -22.68 39 -22 39 C-22 39.66 -22 40.32 -22 41 C-19.03 40.505 -19.03 40.505 -16 40 C-16 36.7 -16 33.4 -16 30 C-15.34 30 -14.68 30 -14 30 C-14 31.32 -14 32.64 -14 34 C-12.35 34.33 -10.7 34.66 -9 35 C-8.67 35.99 -8.34 36.98 -8 38 C-6.35 38.33 -4.7 38.66 -3 39 C-2.67 37.02 -2.34 35.04 -2 33 C-2.928125 33.04125 -3.85625 33.0825 -4.8125 33.125 C-8 33 -8 33 -11 31 C-12.1328125 29.16015625 -12.1328125 29.16015625 -13.125 27.0625 C-13.45757812 26.37285156 -13.79015625 25.68320312 -14.1328125 24.97265625 C-15 23 -15 23 -16 20 C-13.03 20.99 -10.06 21.98 -7 23 C-7.185625 22.05125 -7.37125 21.1025 -7.5625 20.125 C-8.26768593 15.35520074 -7.62132638 10.75075712 -7 6 C-4.525 6.495 -4.525 6.495 -2 7 C-2.04125 6.21625 -2.0825 5.4325 -2.125 4.625 C-2 2 -2 2 0 0 Z " fill="#9F8062" transform="translate(41,35)"/>
<path d="M0 0 C0.66 0 1.32 0 2 0 C2 3.3 2 6.6 2 10 C3.381875 10.268125 4.76375 10.53625 6.1875 10.8125 C9.94705191 11.64729814 12.87579954 12.65684966 16 15 C17.60725635 18.21451269 17.05748185 21.43612536 17 25 C14.69 25 12.38 25 10 25 C10 26.65 10 28.3 10 30 C9.22914062 30.12117188 8.45828125 30.24234375 7.6640625 30.3671875 C6.66117188 30.53476562 5.65828125 30.70234375 4.625 30.875 C3.12839844 31.11863281 3.12839844 31.11863281 1.6015625 31.3671875 C-1.1425115 31.7958802 -1.1425115 31.7958802 -3 34 C-3.64767793 36.57061311 -3.64767793 36.57061311 -4 39 C-5.65 38.67 -7.3 38.34 -9 38 C-9 43.61 -9 49.22 -9 55 C-14.625 55 -14.625 55 -18 52 C-17.65066406 52.54269531 -17.30132812 53.08539063 -16.94140625 53.64453125 C-16.25884766 54.71767578 -16.25884766 54.71767578 -15.5625 55.8125 C-14.88380859 56.87404297 -14.88380859 56.87404297 -14.19140625 57.95703125 C-13 60 -13 60 -12 63 C-10.12612784 63.80212628 -10.12612784 63.80212628 -7.9375 64.1875 C-6.83728516 64.42533203 -6.83728516 64.42533203 -5.71484375 64.66796875 C-5.14894531 64.77753906 -4.58304688 64.88710937 -4 65 C-4 66.98 -4 68.96 -4 71 C-4.99 71.495 -4.99 71.495 -6 72 C-8.625 71.0625 -8.625 71.0625 -11 70 C-11 69.01 -11 68.02 -11 67 C-12.65 66.67 -14.3 66.34 -16 66 C-16 64.68 -16 63.36 -16 62 C-16.66 62 -17.32 62 -18 62 C-17.67 64.31 -17.34 66.62 -17 69 C-17.99 69 -18.98 69 -20 69 C-20 69.66 -20 70.32 -20 71 C-21.485 71.495 -21.485 71.495 -23 72 C-23 71.34 -23 70.68 -23 70 C-23.66 70 -24.32 70 -25 70 C-25 68.68 -25 67.36 -25 66 C-24.34 66 -23.68 66 -23 66 C-23 65.34 -23 64.68 -23 64 C-22.01 63.34 -21.02 62.68 -20 62 C-20.44173092 59.22340565 -20.88033311 56.47866758 -21.5625 53.75 C-22 52 -22 52 -22 50 C-25.3 50 -28.6 50 -32 50 C-32 49.34 -32 48.68 -32 48 C-31.34 48 -30.68 48 -30 48 C-30.495 46.515 -30.495 46.515 -31 45 C-30 44 -30 44 -26.9375 43.9375 C-25.968125 43.958125 -24.99875 43.97875 -24 44 C-24.103125 42.9275 -24.20625 41.855 -24.3125 40.75 C-24.35222065 33.33547905 -20.29527121 26.46735471 -17 20 C-17.66 19.67 -18.32 19.34 -19 19 C-16.56680171 16.05454944 -14.67586393 15.67713283 -11 15 C-10.67 14.34 -10.34 13.68 -10 13 C-8.68 13 -7.36 13 -6 13 C-5.7525 12.154375 -5.505 11.30875 -5.25 10.4375 C-3.86026373 6.61572526 -2.08879162 3.48131937 0 0 Z " fill="#C7C0B2" transform="translate(43,3)"/>
<path d="M0 0 C0.495 1.485 0.495 1.485 1 3 C0.67 3.33 0.34 3.66 0 4 C4.29 4.33 8.58 4.66 13 5 C13.33 4.01 13.66 3.02 14 2 C14.99 2 15.98 2 17 2 C17 12.89 17 23.78 17 35 C13.7 35 10.4 35 7 35 C7 35.66 7 36.32 7 37 C7.66 37 8.32 37 9 37 C10.42334232 42.04639549 9.51014373 45.22702593 7.69140625 49.94921875 C6.8402626 52.11309797 6.8402626 52.11309797 7 55 C7.99 55.495 7.99 55.495 9 56 C8.34 56.99 7.68 57.98 7 59 C7.99 59.495 7.99 59.495 9 60 C8.52407333 61.66574336 8.04569673 63.33082749 7.5546875 64.9921875 C7.03605835 66.86947893 6.63817724 68.77896188 6.25 70.6875 C4.68472495 74.83547888 2.80979645 75.89245303 -1 78 C-1.33 78.33 -1.66 78.66 -2 79 C-4.79311948 79.38278297 -7.57183926 79.71144758 -10.375 80 C-11.59388916 80.13027588 -11.59388916 80.13027588 -12.83740234 80.26318359 C-18.88597175 80.90322479 -24.93876205 81.49267171 -31 82 C-34 77.25 -34 77.25 -34 75 C-29.05 74.505 -29.05 74.505 -24 74 C-24 75.32 -24 76.64 -24 78 C-24.66 78 -25.32 78 -26 78 C-26 78.66 -26 79.32 -26 80 C-23.41379168 79.57598212 -20.83189781 79.1364286 -18.25 78.6875 C-17.52039063 78.56955078 -16.79078125 78.45160156 -16.0390625 78.33007812 C-11.86564583 77.59024517 -9.31653025 76.76635818 -6 74 C-5.01 74 -4.02 74 -3 74 C-3 73.34 -3 72.68 -3 72 C-2.35546875 71.43796875 -1.7109375 70.8759375 -1.046875 70.296875 C1.6579651 67.26167275 1.58951956 65.26201105 1.75 61.25 C1.83507812 59.49429688 1.83507812 59.49429688 1.921875 57.703125 C1.96054688 56.36507812 1.96054688 56.36507812 2 55 C1.34 55 0.68 55 0 55 C0.33 52.69 0.66 50.38 1 48 C1.66 48 2.32 48 3 48 C3 46.35 3 44.7 3 43 C1.02 44.32 -0.96 45.64 -3 47 C-2.67 45.68 -2.34 44.36 -2 43 C-1.34 43 -0.68 43 0 43 C0.91297308 38.02936879 0.91297308 33.97063121 0 29 C-0.639375 28.896875 -1.27875 28.79375 -1.9375 28.6875 C-2.618125 28.460625 -3.29875 28.23375 -4 28 C-4.33 27.01 -4.66 26.02 -5 25 C-5.66 24.67 -6.32 24.34 -7 24 C-7 22.35 -7 20.7 -7 19 C-5.35 19 -3.7 19 -2 19 C-2.33 16.69 -2.66 14.38 -3 12 C-4.65 12.33 -6.3 12.66 -8 13 C-8.33 13.99 -8.66 14.98 -9 16 C-9.6875 14.3125 -9.6875 14.3125 -10 12 C-8.26160017 8.15722143 -6.73765033 6.74423682 -3 5 C-2.67 4.01 -2.34 3.02 -2 2 C-1.34 2 -0.68 2 0 2 C0 1.34 0 0.68 0 0 Z " fill="#AF8663" transform="translate(79,13)"/>
<path d="M0 0 C0.66 0 1.32 0 2 0 C2 1.65 2 3.3 2 5 C1.34 5 0.68 5 0 5 C-0.33 7.31 -0.66 9.62 -1 12 C-0.34 12 0.32 12 1 12 C1.08126087 14.08268593 1.13930839 16.16628658 1.1875 18.25 C1.23970703 19.99023438 1.23970703 19.99023438 1.29296875 21.765625 C0.97927287 25.22882755 0.46132762 26.59230906 -2 29 C-2.66 29 -3.32 29 -4 29 C-4 29.66 -4 30.32 -4 31 C-4.969375 31.474375 -5.93875 31.94875 -6.9375 32.4375 C-9.80477437 33.70193947 -9.80477437 33.70193947 -11 35 C-13.68862664 35.39993686 -16.36352217 35.75134543 -19.0625 36.0625 C-19.82111328 36.15337891 -20.57972656 36.24425781 -21.36132812 36.33789062 C-23.2404301 36.5624374 -25.12016095 36.78170978 -27 37 C-27 36.34 -27 35.68 -27 35 C-26.34 35 -25.68 35 -25 35 C-25 33.68 -25 32.36 -25 31 C-29.95 31.495 -29.95 31.495 -35 32 C-34.67 33.32 -34.34 34.64 -34 36 C-35.5778125 35.071875 -35.5778125 35.071875 -37.1875 34.125 C-40.05469198 32.4799848 -42.9169329 31.19897054 -46 30 C-49.03061766 27.97958823 -49.72239767 27.24314437 -51 24 C-51 23.01 -51 22.02 -51 21 C-51.66 21 -52.32 21 -53 21 C-53 19.02 -53 17.04 -53 15 C-50.53199953 16.15173355 -48.95216435 17.04783565 -47 19 C-44.73088392 19.27437757 -44.73088392 19.27437757 -42.1875 19.3125 C-38.5348792 19.58737161 -36.46562861 19.90467929 -33.875 22.5625 C-33.25625 23.366875 -32.6375 24.17125 -32 25 C-25.95913908 23.11223096 -21.04560932 19.04560932 -16.625 14.625 C-16.08875 14.08875 -15.5525 13.5525 -15 13 C-14.34 13 -13.68 13 -13 13 C-12.34 11.68 -11.68 10.36 -11 9 C-10.01 9 -9.02 9 -8 9 C-8 7.68 -8 6.36 -8 5 C-7.05125 4.54625 -6.1025 4.0925 -5.125 3.625 C-1.99686321 2.19761746 -1.99686321 2.19761746 0 0 Z " fill="#926A45" transform="translate(80,56)"/>
<path d="M0 0 C3.3 0 6.6 0 10 0 C10 15.84 10 31.68 10 48 C-6.17 48 -22.34 48 -39 48 C-39.66 46.68 -40.32 45.36 -41 44 C-40.01 44.66 -39.02 45.32 -38 46 C-35.85683244 46.09706151 -35.85683244 46.09706151 -33.4375 45.75 C-32.47714844 45.63914063 -31.51679687 45.52828125 -30.52734375 45.4140625 C-28.78130859 45.20910156 -28.78130859 45.20910156 -27 45 C-25.45992401 44.8587954 -23.91953326 44.72099756 -22.37890625 44.5859375 C-20.7525562 44.43280026 -19.12625404 44.27915347 -17.5 44.125 C-16.71036865 44.05893555 -15.9207373 43.99287109 -15.10717773 43.92480469 C-10.85414965 43.49358406 -8.89601141 43.0396395 -6 40 C-5.01 39.67 -4.02 39.34 -3 39 C-1.99699436 36.14728157 -1.99699436 36.14728157 -1.375 32.75 C-1.13523438 31.61046875 -0.89546875 30.4709375 -0.6484375 29.296875 C-0.43445313 28.20890625 -0.22046875 27.1209375 0 26 C0.2165625 25.08089844 0.433125 24.16179687 0.65625 23.21484375 C1.23372304 20.9270804 1.23372304 20.9270804 -0.125 18.8125 C-1.35835898 14.84813185 -0.08349116 12.23124246 1.2734375 8.40234375 C2.19299266 5.78018085 2.19299266 5.78018085 2 2 C1.34 2 0.68 2 0 2 C0 1.34 0 0.68 0 0 Z " fill="#D1A279" transform="translate(86,48)"/>
<path d="M0 0 C11.88975473 -0.56221257 11.88975473 -0.56221257 16 3 C17.60725635 6.21451269 17.05748185 9.43612536 17 13 C14.69 13 12.38 13 10 13 C10 14.65 10 16.3 10 18 C9.25234375 18.08636719 8.5046875 18.17273438 7.734375 18.26171875 C1.42280569 19.01173154 1.42280569 19.01173154 -3.5625 22.625 C-4.036875 23.40875 -4.51125 24.1925 -5 25 C-5.66 25 -6.32 25 -7 25 C-7.66 22.69 -8.32 20.38 -9 18 C-10.32 18 -11.64 18 -13 18 C-12.67 18.99 -12.34 19.98 -12 21 C-11.34 21 -10.68 21 -10 21 C-10 24.3 -10 27.6 -10 31 C-10.99 31 -11.98 31 -13 31 C-13.33 31.66 -13.66 32.32 -14 33 C-14.99 33 -15.98 33 -17 33 C-18.02886361 29.59240374 -18.16568934 26.4257762 -18.1875 22.875 C-18.20167969 21.82054688 -18.21585938 20.76609375 -18.23046875 19.6796875 C-18 17 -18 17 -16 15 C-15.59952556 12.67724823 -15.2602896 10.34260643 -15 8 C-14.195625 7.731875 -13.39125 7.46375 -12.5625 7.1875 C-11.716875 6.795625 -10.87125 6.40375 -10 6 C-9.67 5.01 -9.34 4.02 -9 3 C-8.34 3 -7.68 3 -7 3 C-5.76078698 5.97411124 -4.69941596 8.85262818 -4 12 C-2.02 12 -0.04 12 2 12 C1.65775391 10.95199219 1.65775391 10.95199219 1.30859375 9.8828125 C1.02113281 8.97273438 0.73367187 8.06265625 0.4375 7.125 C0.14746094 6.22007813 -0.14257812 5.31515625 -0.44140625 4.3828125 C-1 2 -1 2 0 0 Z " fill="#F4F5F3" transform="translate(43,15)"/>
<path d="M0 0 C0.99 0.33 1.98 0.66 3 1 C3 2.65 3 4.3 3 6 C3.99 6.33 4.98 6.66 6 7 C6.495 8.485 6.495 8.485 7 10 C7.99 10.33 8.98 10.66 10 11 C10.39180108 12.57925975 10.76280736 14.16368794 11.125 15.75 C11.33382812 16.63171875 11.54265625 17.5134375 11.7578125 18.421875 C12.03088304 21.32875493 11.53508028 22.56661348 10 25 C9.34 25 8.68 25 8 25 C7.67 26.32 7.34 27.64 7 29 C5.68 29.33 4.36 29.66 3 30 C3 31.32 3 32.64 3 34 C1.29807615 34.9902653 -0.41188011 35.96673206 -2.125 36.9375 C-3.07632813 37.48277344 -4.02765625 38.02804688 -5.0078125 38.58984375 C-8.06256432 40.02948527 -10.66134387 40.60867384 -14 41 C-13.1875 38.0625 -13.1875 38.0625 -12 35 C-10.515 34.505 -10.515 34.505 -9 34 C-9 33.34 -9 32.68 -9 32 C-8.05125 31.5875 -7.1025 31.175 -6.125 30.75 C-2.99283376 28.9959869 -2.13499394 28.29148243 -1 25 C-0.34 25 0.32 25 1 25 C1.12375 24.319375 1.2475 23.63875 1.375 22.9375 C2.09100877 19.5722588 3.02945125 16.29986575 4 13 C3.01 13 2.02 13 1 13 C1 13.66 1 14.32 1 15 C0.01 15.33 -0.98 15.66 -2 16 C-2.33 16.99 -2.66 17.98 -3 19 C-5.66083969 20.99396257 -8.61242325 23 -12 23 C-12.1875 20.6875 -12.1875 20.6875 -12 18 C-11.02149805 16.97895449 -10.02019573 15.9793879 -9 15 C-8.27802838 12.39388923 -8.27802838 12.39388923 -8 10 C-9.01320313 10.19529297 -9.01320313 10.19529297 -10.046875 10.39453125 C-12.75962809 10.81398874 -15.25499505 11.11274902 -18 11 C-20.3125 8.6875 -20.3125 8.6875 -22 6 C-24.61818456 4.66701026 -24.61818456 4.66701026 -27 4 C-27 3.67 -27 3.34 -27 3 C-21.555 2.505 -21.555 2.505 -16 2 C-15.67 2.66 -15.34 3.32 -15 4 C-14.34 4 -13.68 4 -13 4 C-13 4.66 -13 5.32 -13 6 C-12.43796875 5.68289062 -11.8759375 5.36578125 -11.296875 5.0390625 C-8.84803683 3.93125475 -6.91612145 3.61024601 -4.25 3.375 C-3.45078125 3.30023438 -2.6515625 3.22546875 -1.828125 3.1484375 C-1.22484375 3.09945312 -0.6215625 3.05046875 0 3 C0 2.01 0 1.02 0 0 Z " fill="#AA9681" transform="translate(69,31)"/>
<path d="M0 0 C0.99 0.33 1.98 0.66 3 1 C2.34 1 1.68 1 1 1 C1 1.66 1 2.32 1 3 C0.01 3.66 -0.98 4.32 -2 5 C-3.20450304 7.55183404 -3.20450304 7.55183404 -4 10 C-3.38511719 9.69964844 -2.77023438 9.39929688 -2.13671875 9.08984375 C-0.92435547 8.51943359 -0.92435547 8.51943359 0.3125 7.9375 C1.51326172 7.36322266 1.51326172 7.36322266 2.73828125 6.77734375 C5 6 5 6 8 7 C1.80485814 12.59764087 -3.80615045 17.65890013 -12 20 C-12.28875 19.360625 -12.5775 18.72125 -12.875 18.0625 C-13.82823451 15.84793921 -13.82823451 15.84793921 -16 15 C-17.58221169 14.89755464 -19.1659001 14.81720424 -20.75 14.75 C-26.05988315 14.29596651 -28.32617173 12.77050797 -32 9 C-32 10.98 -32 12.96 -32 15 C-31.34 15 -30.68 15 -30 15 C-28.5393715 17.64738916 -28 18.89448334 -28 22 C-24.71795793 23.77777279 -21.3379754 24.95444208 -17.8046875 26.12109375 C-16 27 -16 27 -14 30 C-16.64 30 -19.28 30 -22 30 C-22 29.01 -22 28.02 -22 27 C-22.68707031 26.85304688 -23.37414062 26.70609375 -24.08203125 26.5546875 C-26.84112694 25.86787398 -29.39383471 25.14178903 -32 24 C-33.6875 21.0625 -33.6875 21.0625 -35 18 C-37.23938922 16.33572665 -39.47895436 15.23673937 -42 14 C-42 13.34 -42 12.68 -42 12 C-41.34 12 -40.68 12 -40 12 C-40 12.66 -40 13.32 -40 14 C-38.02 13.67 -36.04 13.34 -34 13 C-34 9.7 -34 6.4 -34 3 C-33.34 3 -32.68 3 -32 3 C-32 4.32 -32 5.64 -32 7 C-30.35 7.33 -28.7 7.66 -27 8 C-26.67 8.99 -26.34 9.98 -26 11 C-23.525 11.495 -23.525 11.495 -21 12 C-20.67 10.02 -20.34 8.04 -20 6 C-19.67 6.66 -19.34 7.32 -19 8 C-18.67 6.35 -18.34 4.7 -18 3 C-17.34 3 -16.68 3 -16 3 C-15.67 4.98 -15.34 6.96 -15 9 C-14.01 8.67 -13.02 8.34 -12 8 C-11.5875 7.154375 -11.175 6.30875 -10.75 5.4375 C-9.88375 4.2309375 -9.88375 4.2309375 -9 3 C-5.3125 2.6875 -5.3125 2.6875 -2 3 C-2 2.34 -2 1.68 -2 1 C-1.34 0.67 -0.68 0.34 0 0 Z " fill="#987656" transform="translate(59,62)"/>
<path d="M0 0 C3.96 0 7.92 0 12 0 C12.33 1.65 12.66 3.3 13 5 C12.34 5 11.68 5 11 5 C11 5.66 11 6.32 11 7 C11.69867188 6.90460937 12.39734375 6.80921875 13.1171875 6.7109375 C14.02726563 6.60007812 14.93734375 6.48921875 15.875 6.375 C16.77992187 6.25898437 17.68484375 6.14296875 18.6171875 6.0234375 C19.40351563 6.01570313 20.18984375 6.00796875 21 6 C21.66 6.66 22.32 7.32 23 8 C22.67 8.66 22.34 9.32 22 10 C22.33 10.763125 22.66 11.52625 23 12.3125 C24.14309247 15.38456102 23.88573949 16.89991179 23 20 C22.01 20 21.02 20 20 20 C19.67 19.01 19.34 18.02 19 17 C17.53775201 17.42423244 16.08026588 17.86490245 14.625 18.3125 C13.40683594 18.67794922 13.40683594 18.67794922 12.1640625 19.05078125 C9.66815371 19.91368185 9.66815371 19.91368185 8 23 C7.01 22.67 6.02 22.34 5 22 C5.66 21.01 6.32 20.02 7 19 C6.67 18.34 6.34 17.68 6 17 C4.02 16.67 2.04 16.34 0 16 C0 10.72 0 5.44 0 0 Z " fill="#D4AF88" transform="translate(0,46)"/>
<path d="M0 0 C2 2 2 2 2.1953125 4.6015625 C2.17210937 5.59929688 2.14890625 6.59703125 2.125 7.625 C2.10695312 8.62789062 2.08890625 9.63078125 2.0703125 10.6640625 C2.04710937 11.43492188 2.02390625 12.20578125 2 13 C2.66 13.33 3.32 13.66 4 14 C4.05906707 17.91660106 4.09394858 21.83308457 4.125 25.75 C4.14175781 26.84183594 4.15851563 27.93367188 4.17578125 29.05859375 C4.28926552 48.23743609 4.28926552 48.23743609 0.53808594 52.76416016 C-1.1116891 54.08974131 -2.7637226 55.11911817 -4.625 56.125 C-7.75103398 57.65946027 -7.75103398 57.65946027 -9 59 C-10.35048935 59.29535002 -11.71280396 59.53722313 -13.078125 59.75390625 C-13.90957031 59.88603516 -14.74101563 60.01816406 -15.59765625 60.15429688 C-16.47292969 60.28900391 -17.34820312 60.42371094 -18.25 60.5625 C-19.10980469 60.70107422 -19.96960938 60.83964844 -20.85546875 60.98242188 C-29.79712998 62.38084809 -29.79712998 62.38084809 -33 62 C-34.81883009 59.6167054 -36 58.04181663 -36 55 C-31.05 54.505 -31.05 54.505 -26 54 C-26 55.32 -26 56.64 -26 58 C-26.66 58 -27.32 58 -28 58 C-28 58.66 -28 59.32 -28 60 C-25.41379168 59.57598212 -22.83189781 59.1364286 -20.25 58.6875 C-19.52039063 58.56955078 -18.79078125 58.45160156 -18.0390625 58.33007812 C-13.86564583 57.59024517 -11.31653025 56.76635818 -8 54 C-7.01 54 -6.02 54 -5 54 C-5 53.34 -5 52.68 -5 52 C-4.35546875 51.43796875 -3.7109375 50.8759375 -3.046875 50.296875 C-0.3420349 47.26167275 -0.41048044 45.26201105 -0.25 41.25 C-0.16492188 39.49429688 -0.16492188 39.49429688 -0.078125 37.703125 C-0.03945312 36.36507812 -0.03945312 36.36507812 0 35 C-0.66 35 -1.32 35 -2 35 C-1.67 32.69 -1.34 30.38 -1 28 C-0.34 28 0.32 28 1 28 C1 26.35 1 24.7 1 23 C-0.98 24.32 -2.96 25.64 -5 27 C-4.67 25.68 -4.34 24.36 -4 23 C-3.34 23 -2.68 23 -2 23 C-0.72292181 17.54339317 -1.27427561 14.28699496 -3.40625 9.11328125 C-4.09068539 6.6772316 -3.81092251 5.36341233 -3 3 C-2.01 3 -1.02 3 0 3 C0 2.01 0 1.02 0 0 Z " fill="#A27C5A" transform="translate(81,33)"/>
<path d="M0 0 C1.051875 -0.02126953 1.051875 -0.02126953 2.125 -0.04296875 C4 0.1875 4 0.1875 6 2.1875 C4.79618552 4.68111571 3.54571278 6.86893083 2 9.1875 C1.75944532 11.24459596 1.75944532 11.24459596 1.875 13.375 C1.91625 14.633125 1.9575 15.89125 2 17.1875 C1.401875 17.290625 0.80375 17.39375 0.1875 17.5 C-2.0652515 17.99949129 -2.0652515 17.99949129 -3.3125 19.6875 C-5.57566332 21.69920073 -7.2006411 21.68104812 -10.1875 21.875 C-11.08855469 21.94074219 -11.98960938 22.00648437 -12.91796875 22.07421875 C-13.60503906 22.11160156 -14.29210938 22.14898437 -15 22.1875 C-16.10111823 18.71068148 -16.53233835 15.81315581 -16 12.1875 C-12.08272522 6.41775696 -7.42747517 0.06826724 0 0 Z " fill="#623A20" transform="translate(71,67.8125)"/>
<path d="M0 0 C2.31 0 4.62 0 7 0 C7.625 1.875 7.625 1.875 8 4 C7.34 4.66 6.68 5.32 6 6 C6.66 6.33 7.32 6.66 8 7 C8.37125 6.071875 8.37125 6.071875 8.75 5.125 C10.25755082 2.5621636 11.20917138 1.95685553 14 1 C16.75 0.875 16.75 0.875 19 1 C19 1.66 19 2.32 19 3 C19.66 3.33 20.32 3.66 21 4 C20.67 4.99 20.34 5.98 20 7 C19.34 7 18.68 7 18 7 C18 8.32 18 9.64 18 11 C20.475 11.495 20.475 11.495 23 12 C23 11.34 23 10.68 23 10 C23.99 10 24.98 10 26 10 C25.67 11.32 25.34 12.64 25 14 C23.02 14 21.04 14 19 14 C19 13.34 19 12.68 19 12 C18.34 12 17.68 12 17 12 C17.99 13.32 18.98 14.64 20 16 C17.58388467 16.22237877 15.1682283 16.42832339 12.75 16.625 C12.06808594 16.68945312 11.38617188 16.75390625 10.68359375 16.8203125 C6.8772951 17.11594735 4.22190154 17.17561392 1 15 C0.67 15.66 0.34 16.32 0 17 C0 11.39 0 5.78 0 0 Z " fill="#DEBA92" transform="translate(0,62)"/>
<path d="M0 0 C0.99 0.33 1.98 0.66 3 1 C2.236875 1.721875 1.47375 2.44375 0.6875 3.1875 C-2.59103552 6.61852554 -5 9.14910037 -5 14 C-4.67 13.34 -4.34 12.68 -4 12 C-1.4375 11.375 -1.4375 11.375 1 11 C1.66 13.31 2.32 15.62 3 18 C0.13822943 19.43088528 -1.93375773 18.59991697 -5 18 C-5.33 18.66 -5.66 19.32 -6 20 C-8.16467461 20.62669199 -10.35864524 21.15427374 -12.5625 21.625 C-13.76003906 21.88539062 -14.95757812 22.14578125 -16.19140625 22.4140625 C-17.58166016 22.70410156 -17.58166016 22.70410156 -19 23 C-19 22.34 -19 21.68 -19 21 C-20.32 21.33 -21.64 21.66 -23 22 C-22.67 19.36 -22.34 16.72 -22 14 C-19.69 14 -17.38 14 -15 14 C-15.25523874 12.37247769 -15.52974494 10.74796804 -15.8125 9.125 C-15.96332031 8.22007813 -16.11414062 7.31515625 -16.26953125 6.3828125 C-16.83051301 3.65587522 -16.83051301 3.65587522 -20 2 C-18.35 2.33 -16.7 2.66 -15 3 C-15 3.66 -15 4.32 -15 5 C-9.3564735 5.66478003 -9.3564735 5.66478003 -4.171875 3.8515625 C-2.77494529 2.5745712 -1.38692071 1.28785494 0 0 Z " fill="#AB937A" transform="translate(75,14)"/>
<path d="M0 0 C0 3.63 0 7.26 0 11 C-3.3 11 -6.6 11 -10 11 C-10 11.66 -10 12.32 -10 13 C-9.34 13 -8.68 13 -8 13 C-6.57665768 18.04639549 -7.48985627 21.22702593 -9.30859375 25.94921875 C-10.1597374 28.11309797 -10.1597374 28.11309797 -10 31 C-9.34 31.33 -8.68 31.66 -8 32 C-8.66 32.99 -9.32 33.98 -10 35 C-9.34 35.33 -8.68 35.66 -8 36 C-8.47592667 37.66574336 -8.95430327 39.33082749 -9.4453125 40.9921875 C-9.96394165 42.86947893 -10.36182276 44.77896188 -10.75 46.6875 C-12.31527505 50.83547888 -14.19020355 51.89245303 -18 54 C-18.495 54.495 -18.495 54.495 -19 55 C-20.66617115 55.04063832 -22.33388095 55.042721 -24 55 C-21.6875 52.5 -21.6875 52.5 -19 50 C-18.01 50 -17.02 50 -16 50 C-15.67 49.01 -15.34 48.02 -15 47 C-14.34 47 -13.68 47 -13 47 C-13.020625 45.700625 -13.04125 44.40125 -13.0625 43.0625 C-13.06756063 39.82875651 -12.90170244 36.70796173 -12.5 33.5 C-12.03204097 29.7498283 -11.9779061 26.12564348 -12.03125 22.3515625 C-11.97621869 18.21045608 -11.48052809 14.11023138 -11 10 C-11.99 9.67 -12.98 9.34 -14 9 C-13.125 2.25 -13.125 2.25 -12 0 C-7.41584555 -0.96972498 -4.68128427 -0.93625685 0 0 Z " fill="#B68A66" transform="translate(96,37)"/>
<path d="M0 0 C0.66 0.33 1.32 0.66 2 1 C2 2.32 2 3.64 2 5 C1.34 5 0.68 5 0 5 C0 8.3 0 11.6 0 15 C-0.99 15.495 -0.99 15.495 -2 16 C-2.33 16.99 -2.66 17.98 -3 19 C-5.66083969 20.99396257 -8.61242325 23 -12 23 C-12.1875 20.6875 -12.1875 20.6875 -12 18 C-11.02149805 16.97895449 -10.02019573 15.9793879 -9 15 C-8.27802838 12.39388923 -8.27802838 12.39388923 -8 10 C-9.01320313 10.19529297 -9.01320313 10.19529297 -10.046875 10.39453125 C-12.75962809 10.81398874 -15.25499505 11.11274902 -18 11 C-20.3125 8.6875 -20.3125 8.6875 -22 6 C-24.61818456 4.66701026 -24.61818456 4.66701026 -27 4 C-27 3.67 -27 3.34 -27 3 C-21.555 2.505 -21.555 2.505 -16 2 C-15.67 2.66 -15.34 3.32 -15 4 C-14.34 4 -13.68 4 -13 4 C-13 4.66 -13 5.32 -13 6 C-12.43796875 5.68289062 -11.8759375 5.36578125 -11.296875 5.0390625 C-8.84803683 3.93125475 -6.91612145 3.61024601 -4.25 3.375 C-3.45078125 3.30023438 -2.6515625 3.22546875 -1.828125 3.1484375 C-1.22484375 3.09945312 -0.6215625 3.05046875 0 3 C0 2.01 0 1.02 0 0 Z " fill="#B5AAA3" transform="translate(69,31)"/>
<path d="M0 0 C0.66 0 1.32 0 2 0 C2 3.3 2 6.6 2 10 C4.97 10.495 4.97 10.495 8 11 C8 11.33 8 11.66 8 12 C5.36 12.33 2.72 12.66 0 13 C0.33 14.0725 0.66 15.145 1 16.25 C2 20 2 20 2 24 C-0.8125 24.3125 -0.8125 24.3125 -4 24 C-6.70361469 20.75566237 -7 19.29107948 -7 15 C-11.74161409 18.71640023 -15.01483307 21.74042018 -18 27 C-18.66 26.67 -19.32 26.34 -20 26 C-19.01 24.02 -18.02 22.04 -17 20 C-17.66 19.67 -18.32 19.34 -19 19 C-16.56680171 16.05454944 -14.67586393 15.67713283 -11 15 C-10.67 14.34 -10.34 13.68 -10 13 C-8.68 13 -7.36 13 -6 13 C-5.7525 12.154375 -5.505 11.30875 -5.25 10.4375 C-3.86026373 6.61572526 -2.08879162 3.48131937 0 0 Z " fill="#D0BDA2" transform="translate(43,3)"/>
<path d="M0 0 C2.46800047 1.15173355 4.04783565 2.04783565 6 4 C8.36590469 4.42488263 8.36590469 4.42488263 11 4.5625 C15.81016949 4.90508475 15.81016949 4.90508475 18 6 C17.85950482 7.47968324 17.71245174 8.95874516 17.5625 10.4375 C17.48128906 11.26121094 17.40007813 12.08492187 17.31640625 12.93359375 C17 15 17 15 16 16 C8.88629738 16.4664723 8.88629738 16.4664723 5.625 14.75 C2.95742427 11.87722613 2 9.94196134 2 6 C1.34 6 0.68 6 0 6 C0 4.02 0 2.04 0 0 Z " fill="#492713" transform="translate(27,71)"/>
<path d="M0 0 C0.66 0 1.32 0 2 0 C2 1.32 2 2.64 2 4 C3.65 4.33 5.3 4.66 7 5 C7.33 5.99 7.66 6.98 8 8 C10.475 8.495 10.475 8.495 13 9 C13.33 7.02 13.66 5.04 14 3 C16 5 16 5 16.125 7.625 C16.08375 8.40875 16.0425 9.1925 16 10 C13.09704195 11.45147903 11.22738221 11.37239025 8 11 C5.72248656 9.52631484 3.97993 7.88564762 2 6 C2 7.98 2 9.96 2 12 C2.66 12 3.32 12 4 12 C5.4606285 14.64738916 6 15.89448334 6 19 C9.28204207 20.77777279 12.6620246 21.95444208 16.1953125 23.12109375 C18 24 18 24 20 27 C17.36 27 14.72 27 12 27 C12 26.01 12 25.02 12 24 C11.31292969 23.85304688 10.62585938 23.70609375 9.91796875 23.5546875 C7.15887306 22.86787398 4.60616529 22.14178903 2 21 C0.3125 18.0625 0.3125 18.0625 -1 15 C-3.23938922 13.33572665 -5.47895436 12.23673937 -8 11 C-8 10.34 -8 9.68 -8 9 C-7.34 9 -6.68 9 -6 9 C-6 9.66 -6 10.32 -6 11 C-4.02 10.67 -2.04 10.34 0 10 C0 6.7 0 3.4 0 0 Z " fill="#C49C73" transform="translate(25,65)"/>
<path d="M0 0 C0.99 0 1.98 0 3 0 C2.49202991 4.3177458 1.80317221 8.03302114 0 12 C-0.66 12 -1.32 12 -2 12 C-2.185625 12.78375 -2.37125 13.5675 -2.5625 14.375 C-4 17 -4 17 -7.5 18.3125 C-11 19 -11 19 -13 19 C-13 19.66 -13 20.32 -13 21 C-14.093125 21.061875 -15.18625 21.12375 -16.3125 21.1875 C-20.15014447 21.5915869 -20.15014447 21.5915869 -21.75 24.5625 C-22.1625 25.366875 -22.575 26.17125 -23 27 C-23.99 27 -24.98 27 -26 27 C-26.33 25.02 -26.66 23.04 -27 21 C-21.63067872 18.38515323 -16.6696835 16.50451707 -10.75 15.58984375 C-10.1725 15.39519531 -9.595 15.20054688 -9 15 C-8.67 14.01 -8.34 13.02 -8 12 C-7.175 11.5875 -6.35 11.175 -5.5 10.75 C-2.5938773 9.13579798 -2.5938773 9.13579798 -2.1875 5.3125 C-2.125625 4.219375 -2.06375 3.12625 -2 2 C-1.34 2 -0.68 2 0 2 C0 1.34 0 0.68 0 0 Z " fill="#825F36" transform="translate(70,44)"/>
<path d="M0 0 C0.99 0 1.98 0 3 0 C3 0.99 3 1.98 3 3 C3.66 2.67 4.32 2.34 5 2 C7.6723621 1.86584528 10.32250488 1.95681459 13 2 C13.1875 4.3125 13.1875 4.3125 13 7 C12.02149805 8.02104551 11.02019573 9.0206121 10 10 C9.27802838 12.60611077 9.27802838 12.60611077 9 15 C9.928125 14.34 10.85625 13.68 11.8125 13 C15 11 15 11 18 11 C18.33 9.68 18.66 8.36 19 7 C19.33 7 19.66 7 20 7 C20.375 10.25 20.375 10.25 20 14 C17.0625 16.3125 17.0625 16.3125 14 18 C13.67 18.66 13.34 19.32 13 20 C12.01 20 11.02 20 10 20 C10 19.34 10 18.68 10 18 C8.68 18 7.36 18 6 18 C5.75 14.75 5.75 14.75 6 11 C7.9375 8.75 7.9375 8.75 10 7 C10.33 6.01 10.66 5.02 11 4 C6.77638438 3.64803203 5.27796999 4.46221678 2 7 C0.68 7 -0.64 7 -2 7 C-1.42415568 4.61435923 -0.77772405 2.33317216 0 0 Z " fill="#998572" transform="translate(48,39)"/>
<path d="M0 0 C5.56818182 0.56818182 5.56818182 0.56818182 7 2 C7.3214079 5.96403081 6.87376865 7.2524627 5 11 C7.97 10.01 10.94 9.02 14 8 C11.70616872 12.58766257 10.74467855 13.12234362 6.16796875 14.65625 C2.29380835 15.27053129 0.30138074 14.04685606 -3 12 C-4.4375 9.8125 -4.4375 9.8125 -5 8 C-3.68 8 -2.36 8 -1 8 C-1.309375 6.576875 -1.309375 6.576875 -1.625 5.125 C-1.74875 4.09375 -1.8725 3.0625 -2 2 C-1.34 1.34 -0.68 0.68 0 0 Z " fill="#4F322A" transform="translate(41,35)"/>
<path d="M0 0 C1.89213369 2.38573379 3.02391783 4.07175348 4 7 C5.87387216 7.80212628 5.87387216 7.80212628 8.0625 8.1875 C8.79597656 8.34605469 9.52945313 8.50460938 10.28515625 8.66796875 C10.85105469 8.77753906 11.41695312 8.88710937 12 9 C12 10.98 12 12.96 12 15 C11.01 15.495 11.01 15.495 10 16 C7.375 15.0625 7.375 15.0625 5 14 C5 13.01 5 12.02 5 11 C3.35 10.67 1.7 10.34 0 10 C0 8.68 0 7.36 0 6 C-0.66 6 -1.32 6 -2 6 C-1.67 8.31 -1.34 10.62 -1 13 C-1.99 13 -2.98 13 -4 13 C-4 13.66 -4 14.32 -4 15 C-4.99 15.33 -5.98 15.66 -7 16 C-7 15.34 -7 14.68 -7 14 C-7.66 14 -8.32 14 -9 14 C-9 12.68 -9 11.36 -9 10 C-8.34 10 -7.68 10 -7 10 C-7 9.34 -7 8.68 -7 8 C-6.01 7.34 -5.02 6.68 -4 6 C-3.67 5.01 -3.34 4.02 -3 3 C-2.01 3 -1.02 3 0 3 C0 2.01 0 1.02 0 0 Z " fill="#C0B2A5" transform="translate(27,59)"/>
<path d="M0 0 C1.98 0 3.96 0 6 0 C6 0.66 6 1.32 6 2 C4.68 2 3.36 2 2 2 C5.17539556 5.42578949 5.17539556 5.42578949 9 8 C8.25 12.75 8.25 12.75 6 15 C5.83322718 18.58343976 5.83322718 18.58343976 6 22 C4.35 21.67 2.7 21.34 1 21 C-0.67959957 13.69860023 -1.18982084 7.41226226 0 0 Z " fill="#BF7898" transform="translate(34,41)"/>
<path d="M0 0 C0.33 0 0.66 0 1 0 C1.125 2.375 1.125 2.375 1 5 C0.34 5.66 -0.32 6.32 -1 7 C-1.46396693 9.89223503 -1.46396693 9.89223503 -1.625 13.125 C-1.69976562 14.22070312 -1.77453125 15.31640625 -1.8515625 16.4453125 C-1.90054687 17.28835937 -1.94953125 18.13140625 -2 19 C-2.66 19 -3.32 19 -4 19 C-4 21.31 -4 23.62 -4 26 C-4.99 26 -5.98 26 -7 26 C-7 25.34 -7 24.68 -7 24 C-7.99 24.66 -8.98 25.32 -10 26 C-10.99 26 -11.98 26 -13 26 C-13 25.34 -13 24.68 -13 24 C-13.66 23.67 -14.32 23.34 -15 23 C-14 22 -14 22 -10.9375 21.9375 C-9.4834375 21.9684375 -9.4834375 21.9684375 -8 22 C-8.12375 20.2984375 -8.12375 20.2984375 -8.25 18.5625 C-8.28668956 13.43513383 -6.3225558 9.47921476 -4 5 C-3.34 5 -2.68 5 -2 5 C-1.34 3.35 -0.68 1.7 0 0 Z " fill="#D9D2C0" transform="translate(27,25)"/>
<path d="M0 0 C1.65 0.33 3.3 0.66 5 1 C4.59186904 3.36715956 4.32646529 4.68772885 2.5625 6.375 C0.73918026 8.0107436 0.73918026 8.0107436 0.1875 11 C-1 14 -1 14 -3.75 16 C-7.64396301 17.19814247 -9.34831852 16.65195114 -13 15 C-12.34 14.01 -11.68 13.02 -11 12 C-10.61500109 10.34450469 -10.27206865 8.6777567 -10 7 C-9.36191406 6.82984375 -8.72382812 6.6596875 -8.06640625 6.484375 C-6.82697266 6.12085938 -6.82697266 6.12085938 -5.5625 5.75 C-4.73878906 5.51796875 -3.91507813 5.2859375 -3.06640625 5.046875 C-0.80004532 4.19229321 -0.80004532 4.19229321 -0.21484375 1.890625 C-0.14394531 1.26671875 -0.07304688 0.6428125 0 0 Z " fill="#7D6146" transform="translate(54,42)"/>
<path d="M0 0 C0.99 0.33 1.98 0.66 3 1 C2.34 1.66 1.68 2.32 1 3 C0.75660449 5.89883083 0.75660449 5.89883083 0.875 9.125 C0.90207031 10.76855469 0.90207031 10.76855469 0.9296875 12.4453125 C0.95289062 13.28835937 0.97609375 14.13140625 1 15 C0.01 15.33 -0.98 15.66 -2 16 C-2 15.34 -2 14.68 -2 14 C-1.34 14 -0.68 14 0 14 C0 12.68 0 11.36 0 10 C-3.3 10.33 -6.6 10.66 -10 11 C-9.67 12.32 -9.34 13.64 -9 15 C-12.465 13.02 -12.465 13.02 -16 11 C-15.38125 10.835 -14.7625 10.67 -14.125 10.5 C-10.72243051 8.09818625 -10.77387974 4.99837866 -10 1 C-9.01 1.99 -8.02 2.98 -7 4 C-4.08482708 2.92598892 -2.22189824 2.22189824 0 0 Z " fill="#755B40" transform="translate(55,77)"/>
<path d="M0 0 C3.3 0 6.6 0 10 0 C10 3.96 10 7.92 10 12 C8.906875 12.28875 7.81375 12.5775 6.6875 12.875 C2.95986155 13.81893204 2.95986155 13.81893204 0 16 C0.45822468 12.53058454 0.89131683 9.32604951 2 6 C2 4.68 2 3.36 2 2 C1.34 2 0.68 2 0 2 C0 1.34 0 0.68 0 0 Z " fill="#C99C75" transform="translate(86,48)"/>
<path d="M0 0 C0.66 0 1.32 0 2 0 C3.42334232 5.04639549 2.51014373 8.22702593 0.69140625 12.94921875 C-0.1597374 15.11309797 -0.1597374 15.11309797 0 18 C0.66 18.33 1.32 18.66 2 19 C1.34 19.99 0.68 20.98 0 22 C0.66 22.33 1.32 22.66 2 23 C1.52407333 24.66574336 1.04569673 26.33082749 0.5546875 27.9921875 C0.03605835 29.86947893 -0.36182276 31.77896188 -0.75 33.6875 C-2.31527505 37.83547888 -4.19020355 38.89245303 -8 41 C-8.495 41.495 -8.495 41.495 -9 42 C-10.66617115 42.04063832 -12.33388095 42.042721 -14 42 C-11.6875 39.5 -11.6875 39.5 -9 37 C-8.01 37 -7.02 37 -6 37 C-5.67 36.01 -5.34 35.02 -5 34 C-4.34 34 -3.68 34 -3 34 C-3.020625 32.700625 -3.04125 31.40125 -3.0625 30.0625 C-3.05513232 25.30297664 -2.60950594 20.71529868 -2 16 C-1.82882051 14.62507538 -1.65830653 13.25006783 -1.48828125 11.875 C-0.99771859 7.91595819 -0.50019279 3.95783613 0 0 Z " fill="#BD916A" transform="translate(86,50)"/>
<path d="M0 0 C0.804375 0.4640625 0.804375 0.4640625 1.625 0.9375 C4.3984957 2.17827439 7.00042837 2.5909675 10 3 C10 4.32 10 5.64 10 7 C10.66 7 11.32 7 12 7 C12 7.66 12 8.32 12 9 C14.97 9 17.94 9 21 9 C21 9.33 21 9.66 21 10 C19.35 10 17.7 10 16 10 C16.33 11.65 16.66 13.3 17 15 C16.34 15 15.68 15 15 15 C15 14.34 15 13.68 15 13 C13.906875 13.04125 12.81375 13.0825 11.6875 13.125 C8 13 8 13 5 11 C3.8671875 9.16015625 3.8671875 9.16015625 2.875 7.0625 C2.54242187 6.37285156 2.20984375 5.68320312 1.8671875 4.97265625 C1 3 1 3 0 0 Z " fill="#927C66" transform="translate(25,55)"/>
<path d="M0 0 C0.66 0.66 1.32 1.32 2 2 C4.06874034 2.6425235 4.06874034 2.6425235 6 3 C6.33 2.34 6.66 1.68 7 1 C7 1.99 7 2.98 7 4 C5.29807615 4.9902653 3.58811989 5.96673206 1.875 6.9375 C0.92367187 7.48277344 -0.02765625 8.02804688 -1.0078125 8.58984375 C-4.06256432 10.02948527 -6.66134387 10.60867384 -10 11 C-9.1875 8.0625 -9.1875 8.0625 -8 5 C-7.01 4.67 -6.02 4.34 -5 4 C-5 3.34 -5 2.68 -5 2 C-3.35 1.34 -1.7 0.68 0 0 Z " fill="#A5886B" transform="translate(65,61)"/>
<path d="M0 0 C2.46800047 1.15173355 4.04783565 2.04783565 6 4 C8.43252661 4.46162427 8.43252661 4.46162427 11.125 4.625 C12.03507812 4.69976562 12.94515625 4.77453125 13.8828125 4.8515625 C14.58148438 4.90054688 15.28015625 4.94953125 16 5 C16 5.33 16 5.66 16 6 C13.03 6 10.06 6 7 6 C7.45375 7.093125 7.9075 8.18625 8.375 9.3125 C8.63023438 9.92738281 8.88546875 10.54226562 9.1484375 11.17578125 C10.06806692 13.26533932 10.06806692 13.26533932 12 16 C8.62537285 15.45276317 6.91765 14.9451 4 13 C2.38214873 10.36034793 2 9.15987325 2 6 C1.34 6 0.68 6 0 6 C0 4.02 0 2.04 0 0 Z " fill="#5B3822" transform="translate(27,71)"/>
<path d="M0 0 C1.58206057 0.00667536 3.16410534 0.0186375 4.74609375 0.03515625 C5.55240234 0.03966797 6.35871094 0.04417969 7.18945312 0.04882812 C9.18753131 0.06065107 11.18557158 0.07858711 13.18359375 0.09765625 C13.18359375 0.75765625 13.18359375 1.41765625 13.18359375 2.09765625 C11.86359375 2.09765625 10.54359375 2.09765625 9.18359375 2.09765625 C9.18359375 2.75765625 9.18359375 3.41765625 9.18359375 4.09765625 C10.83359375 4.09765625 12.48359375 4.09765625 14.18359375 4.09765625 C10.41923783 6.58821496 7.31741998 6.12856609 2.93359375 5.72265625 C1.6703125 5.61179687 0.40703125 5.5009375 -0.89453125 5.38671875 C-1.85875 5.29132812 -2.82296875 5.1959375 -3.81640625 5.09765625 C-3.48640625 4.43765625 -3.15640625 3.77765625 -2.81640625 3.09765625 C-3.47640625 2.43765625 -4.13640625 1.77765625 -4.81640625 1.09765625 C-3.81640625 0.09765625 -3.81640625 0.09765625 0 0 Z " fill="#A9815A" transform="translate(69.81640625,2.90234375)"/>
<path d="M0 0 C0.66 0 1.32 0 2 0 C2.25 2.3125 2.25 2.3125 2 5 C0.68212715 6.02028865 -0.65210653 7.01971384 -2 8 C-2.8042208 10.59855733 -2.8042208 10.59855733 -3 13 C-6.3 12.67 -9.6 12.34 -13 12 C-12.34 11.01 -11.68 10.02 -11 9 C-10.01 9 -9.02 9 -8 9 C-8 7.68 -8 6.36 -8 5 C-7.05125 4.54625 -6.1025 4.0925 -5.125 3.625 C-1.99686321 2.19761746 -1.99686321 2.19761746 0 0 Z " fill="#765131" transform="translate(80,56)"/>
<path d="M0 0 C0.66 0 1.32 0 2 0 C2 1.32 2 2.64 2 4 C3.65 4.33 5.3 4.66 7 5 C7.33 5.99 7.66 6.98 8 8 C10.475 8.495 10.475 8.495 13 9 C13.33 7.02 13.66 5.04 14 3 C16 5 16 5 16.125 7.625 C16.08375 8.40875 16.0425 9.1925 16 10 C13.09704195 11.45147903 11.22738221 11.37239025 8 11 C5.72248656 9.52631484 3.97993 7.88564762 2 6 C2 8.31 2 10.62 2 13 C-4.625 13.25 -4.625 13.25 -8 11 C-8 10.34 -8 9.68 -8 9 C-7.34 9 -6.68 9 -6 9 C-6 9.66 -6 10.32 -6 11 C-4.02 10.67 -2.04 10.34 0 10 C0 6.7 0 3.4 0 0 Z " fill="#A68F7A" transform="translate(25,65)"/>
<path d="M0 0 C1.32 0.33 2.64 0.66 4 1 C4 1.66 4 2.32 4 3 C4.66 3 5.32 3 6 3 C5.62403791 5.78211944 5.32681541 7.5879284 3.5625 9.8125 C2 11 2 11 0 11 C0 11.66 0 12.32 0 13 C-0.99 13 -1.98 13 -3 13 C-3.38281159 7.76824163 -2.21854707 4.62197306 0 0 Z " fill="#B7A38E" transform="translate(75,46)"/>
<path d="M0 0 C0.66 0 1.32 0 2 0 C2 0.99 2 1.98 2 3 C3.32 2.34 4.64 1.68 6 1 C6.33 1.66 6.66 2.32 7 3 C7.5775 2.814375 8.155 2.62875 8.75 2.4375 C11 2 11 2 13.125 2.5625 C13.74375 2.706875 14.3625 2.85125 15 3 C15.66 2.34 16.32 1.68 17 1 C19.68839385 0.73008094 22.29141936 0.91262643 25 1 C25.66 2.32 26.32 3.64 27 5 C18.09 5 9.18 5 0 5 C0 3.35 0 1.7 0 0 Z " fill="#DAAE82" transform="translate(20,91)"/>
<path d="M0 0 C0.99 0 1.98 0 3 0 C2.49202991 4.3177458 1.80317221 8.03302114 0 12 C-0.66 12 -1.32 12 -2 12 C-2.2475 12.804375 -2.495 13.60875 -2.75 14.4375 C-4 17 -4 17 -6.125 17.8125 C-6.74375 17.874375 -7.3625 17.93625 -8 18 C-7.34 17.67 -6.68 17.34 -6 17 C-6 16.01 -6 15.02 -6 14 C-6.99 13.67 -7.98 13.34 -9 13 C-8.030625 12.484375 -7.06125 11.96875 -6.0625 11.4375 C-2.64608309 9.23561704 -2.64608309 9.23561704 -2.125 5.25 C-2.08375 4.1775 -2.0425 3.105 -2 2 C-1.34 2 -0.68 2 0 2 C0 1.34 0 0.68 0 0 Z " fill="#8F704E" transform="translate(70,44)"/>
<path d="M0 0 C2.125 0.9375 2.125 0.9375 4 2 C4 3.98 4 5.96 4 8 C4.66 8 5.32 8 6 8 C6.33 7.34 6.66 6.68 7 6 C7 7.32 7 8.64 7 10 C5.35 9.67 3.7 9.34 2 9 C2.020625 10.299375 2.04125 11.59875 2.0625 12.9375 C2.08399454 14.29165633 2.07148199 15.64756083 2 17 C1 18 1 18 -1.5625 18.0625 C-2.366875 18.041875 -3.17125 18.02125 -4 18 C-4.33 17.34 -4.66 16.68 -5 16 C-4.34 16 -3.68 16 -3 16 C-2.67 15.01 -2.34 14.02 -2 13 C-1.34 13 -0.68 13 0 13 C0.33 10.03 0.66 7.06 1 4 C0.01 4.33 -0.98 4.66 -2 5 C-2 3.68 -2 2.36 -2 1 C-1.34 0.67 -0.68 0.34 0 0 Z " fill="#E2DDD5" transform="translate(32,32)"/>
<path d="M0 0 C1.32 0 2.64 0 4 0 C4.05447047 1.41623216 4.09300508 2.83308191 4.125 4.25 C4.14820312 5.03890625 4.17140625 5.8278125 4.1953125 6.640625 C3.97583549 9.29190728 3.45725243 10.78121565 2 13 C-0.64775264 15.02328268 -3.60047077 17 -7 17 C-7 13 -7 13 -5.5390625 11.296875 C-4.90742187 10.78640625 -4.27578125 10.2759375 -3.625 9.75 C-2.99851562 9.22921875 -2.37203125 8.7084375 -1.7265625 8.171875 C0 7 0 7 2 7 C2 6.01 2 5.02 2 4 C1.34 4 0.68 4 0 4 C0 2.68 0 1.36 0 0 Z " fill="#CFC5BB" transform="translate(64,37)"/>
<path d="M0 0 C2.97 0.33 5.94 0.66 9 1 C9 2.66666667 9 4.33333333 9 6 C9.99 6 10.98 6 12 6 C12.33 5.34 12.66 4.68 13 4 C13.33 4.66 13.66 5.32 14 6 C13.01 6.99 12.02 7.98 11 9 C9.02 8.01 7.04 7.02 5 6 C4.67 7.32 4.34 8.64 4 10 C2.68 10 1.36 10 0 10 C0 6.7 0 3.4 0 0 Z " fill="#E6C095" transform="translate(0,86)"/>
<path d="M0 0 C-0.20496094 0.556875 -0.40992188 1.11375 -0.62109375 1.6875 C-2.43878495 6.83617554 -3.50570547 11.56276016 -4 17 C-5.65 17 -7.3 17 -9 17 C-8.54625 16.525625 -8.0925 16.05125 -7.625 15.5625 C-5.3298066 11.94315657 -4.75865335 8.1770561 -4 4 C-5.98 4 -7.96 4 -10 4 C-10.33 3.34 -10.66 2.68 -11 2 C-10.67 1.34 -10.34 0.68 -10 0 C-6.35346727 -1.11421833 -3.66708957 -0.94296589 0 0 Z " fill="#CFA884" transform="translate(23,30)"/>
<path d="M0 0 C0.845625 0.185625 1.69125 0.37125 2.5625 0.5625 C3.26375 0.376875 3.965 0.19125 4.6875 0 C5.30625 -0.144375 5.925 -0.28875 6.5625 -0.4375 C7.5525 0.2225 8.5425 0.8825 9.5625 1.5625 C4.51634615 6.48557692 4.51634615 6.48557692 -0.3125 6.875 C-1.34375 6.771875 -2.375 6.66875 -3.4375 6.5625 C-4.0975 4.9125 -4.7575 3.2625 -5.4375 1.5625 C-2.4375 -0.4375 -2.4375 -0.4375 0 0 Z " fill="#B08762" transform="translate(65.4375,13.4375)"/>
<path d="M0 0 C0.33 0 0.66 0 1 0 C1.4375 3.1875 1.4375 3.1875 1 7 C-1.0478079 9.17142885 -3.32547259 10.68694016 -6 12 C-6.66 12 -7.32 12 -8 12 C-8 11.34 -8 10.68 -8 10 C-9.32 10 -10.64 10 -12 10 C-11.67 8.02 -11.34 6.04 -11 4 C-10.67 5.32 -10.34 6.64 -10 8 C-9.071875 7.34 -8.14375 6.68 -7.1875 6 C-4 4 -4 4 -1 4 C-0.67 2.68 -0.34 1.36 0 0 Z " fill="#B6A18B" transform="translate(67,46)"/>
<path d="M0 0 C0 1.32 0 2.64 0 4 C2.97 4.495 2.97 4.495 6 5 C6 5.99 6 6.98 6 8 C0.74900686 9.13771518 0.74900686 9.13771518 -2 9 C-4.1875 6.6875 -4.1875 6.6875 -6 4 C-8.61818456 2.66701026 -8.61818456 2.66701026 -11 2 C-11 1.67 -11 1.34 -11 1 C-7.26562152 0.12132271 -3.83225427 -0.08912219 0 0 Z " fill="#BDBCBF" transform="translate(53,33)"/>
<path d="M0 0 C5.71428571 0.71428571 5.71428571 0.71428571 7 2 C7.125 4.5 7.125 4.5 7 7 C6 8 6 8 3.0625 8.1875 C0 8 0 8 -2 6 C-1.44444444 1.44444444 -1.44444444 1.44444444 0 0 Z " fill="#2D2324" transform="translate(41,35)"/>
<path d="M0 0 C0 1.32 0 2.64 0 4 C-0.66 4 -1.32 4 -2 4 C-1.67 4.99 -1.34 5.98 -1 7 C-2 8 -2 8 -4.375 8.375 C-7 8 -7 8 -8.8125 5.625 C-10 3 -10 3 -10 1 C-6.59437148 0.22157062 -3.49234244 -0.09978121 0 0 Z " fill="#816954" transform="translate(55,87)"/>
<path d="M0 0 C0 3.11227195 -0.45627049 5.94152152 -1 9 C-0.01 9 0.98 9 2 9 C2 8.34 2 7.68 2 7 C2.66 7.33 3.32 7.66 4 8 C3 9 2 10 1 11 C0.54625 11.5775 0.0925 12.155 -0.375 12.75 C-2 14 -2 14 -4.6875 13.6875 C-5.450625 13.460625 -6.21375 13.23375 -7 13 C-6.125 8.25 -6.125 8.25 -5 6 C-4.34 6 -3.68 6 -3 6 C-2.814375 4.7934375 -2.814375 4.7934375 -2.625 3.5625 C-2.41875 2.716875 -2.2125 1.87125 -2 1 C-1.34 0.67 -0.68 0.34 0 0 Z " fill="#AE987F" transform="translate(73,50)"/>
<path d="M0 0 C0.625 1.75 0.625 1.75 1 4 C0.33333333 5.33333333 -0.33333333 6.66666667 -1 8 C-1.061875 9.299375 -1.12375 10.59875 -1.1875 11.9375 C-1.45578841 14.45564557 -1.72767305 15.67646627 -3.37109375 17.62890625 C-7.50485818 20.86042366 -10.68631612 21.54221264 -16 21 C-16 20.67 -16 20.34 -16 20 C-12.535 19.505 -12.535 19.505 -9 19 C-8.67 18.01 -8.34 17.02 -8 16 C-6.68 16 -5.36 16 -4 16 C-4.11859375 15.40832031 -4.2371875 14.81664063 -4.359375 14.20703125 C-5.42615851 7.66764833 -5.42615851 7.66764833 -3.125 4.0625 C-2.42375 3.381875 -1.7225 2.70125 -1 2 C-0.67 1.34 -0.34 0.68 0 0 Z " fill="#7C5533" transform="translate(77,69)"/>
<path d="M0 0 C0.66 0 1.32 0 2 0 C2 1.32 2 2.64 2 4 C0.68 4 -0.64 4 -2 4 C-2 4.66 -2 5.32 -2 6 C-2.66 6 -3.32 6 -4 6 C-3.34 8.97 -2.68 11.94 -2 15 C-3.98 15 -5.96 15 -8 15 C-8 16.65 -8 18.3 -8 20 C-8.33 20 -8.66 20 -9 20 C-9.125 17.125 -9.125 17.125 -9 14 C-8.34 13.34 -7.68 12.68 -7 12 C-6.59952556 9.67724823 -6.2602896 7.34260643 -6 5 C-5.195625 4.731875 -4.39125 4.46375 -3.5625 4.1875 C-2.716875 3.795625 -1.87125 3.40375 -1 3 C-0.67 2.01 -0.34 1.02 0 0 Z " fill="#F1F1EA" transform="translate(34,18)"/>
<path d="M0 0 C0.33 0 0.66 0 1 0 C1 4.29 1 8.58 1 13 C0.34 13 -0.32 13 -1 13 C-0.82082031 13.61488281 -0.64164062 14.22976562 -0.45703125 14.86328125 C-0.24433594 15.67152344 -0.03164062 16.47976562 0.1875 17.3125 C0.40792969 18.11300781 0.62835938 18.91351563 0.85546875 19.73828125 C1 22 1 22 -0.44921875 23.79296875 C-0.96097656 24.19128906 -1.47273438 24.58960937 -2 25 C-2 23.02 -2 21.04 -2 19 C-2.66 19 -3.32 19 -4 19 C-3.67 16.69 -3.34 14.38 -3 12 C-2.34 12 -1.68 12 -1 12 C-1 10.35 -1 8.7 -1 7 C-1.66 6.67 -2.32 6.34 -3 6 C-2.34 5.34 -1.68 4.68 -1 4 C-0.3574765 1.93125966 -0.3574765 1.93125966 0 0 Z " fill="#9D7651" transform="translate(83,49)"/>
<path d="M0 0 C1.485 0.99 1.485 0.99 3 2 C5.31339691 2.05970422 5.31339691 2.05970422 7.875 1.6875 C12.31053148 1.18872538 16.73580237 0.76833655 21.1875 0.4375 C22.29480469 0.35371094 23.40210938 0.26992187 24.54296875 0.18359375 C25.35378906 0.12300781 26.16460937 0.06242187 27 0 C26.38125 0.28875 25.7625 0.5775 25.125 0.875 C22.86674235 1.93720042 22.86674235 1.93720042 21 4 C19.02880859 4.22705078 19.02880859 4.22705078 16.6484375 4.1953125 C15.37226562 4.18564453 15.37226562 4.18564453 14.0703125 4.17578125 C12.73613281 4.15064453 12.73613281 4.15064453 11.375 4.125 C10.02921875 4.11146484 10.02921875 4.11146484 8.65625 4.09765625 C6.43723414 4.0740497 4.21874923 4.0411231 2 4 C1.34 2.68 0.68 1.36 0 0 Z " fill="#BC9068" transform="translate(45,92)"/>
<path d="M0 0 C1.24546405 2.49092811 0.7767578 3.41080733 0 6 C0.66 6.33 1.32 6.66 2 7 C1.71617054 8.75128818 1.42260471 10.50100003 1.125 12.25 C0.96257812 13.22453125 0.80015625 14.1990625 0.6328125 15.203125 C0.05144152 17.77264117 -0.70840265 19.72071056 -2 22 C-2.66 22 -3.32 22 -4 22 C-4.25062448 15.48376353 -4.25062448 15.48376353 -2.9921875 13.0546875 C-1.81523172 10.61736962 -1.85647342 9.05715303 -2 6.375 C-2.125 4.0234375 -2.125 4.0234375 -2 2 C-1.34 1.34 -0.68 0.68 0 0 Z " fill="#8A633E" transform="translate(79,62)"/>
<path d="M0 0 C0.66 0 1.32 0 2 0 C1.67 1.98 1.34 3.96 1 6 C-1.31 6.66 -3.62 7.32 -6 8 C-6 7.34 -6 6.68 -6 6 C-7.65 5.67 -9.3 5.34 -11 5 C-11 4.01 -11 3.02 -11 2 C-7.4780279 1.91995518 -4.38018531 1.95994298 -1 3 C-0.67 2.01 -0.34 1.02 0 0 Z " fill="#856A50" transform="translate(65,27)"/>
<path d="M0 0 C0.66 0 1.32 0 2 0 C1.67 3.63 1.34 7.26 1 11 C-0.98 11.66 -2.96 12.32 -5 13 C-4.48474397 7.71862571 -2.74522883 4.42778844 0 0 Z " fill="#E6D3B8" transform="translate(43,3)"/>
<path d="M0 0 C0.33 2.31 0.66 4.62 1 7 C-1.1875 7.3125 -1.1875 7.3125 -4 7 C-6.8125 4.5 -6.8125 4.5 -9 2 C-8.401875 1.855625 -7.80375 1.71125 -7.1875 1.5625 C-1.11111111 0 -1.11111111 0 0 0 Z " fill="#C4B6A8" transform="translate(33,51)"/>
<path d="M0 0 C0.33 0 0.66 0 1 0 C1.125 2.375 1.125 2.375 1 5 C0.34 5.66 -0.32 6.32 -1 7 C2.11771927 8.60339848 3.39011689 9.18974141 6.8125 8.125 C7.534375 7.75375 8.25625 7.3825 9 7 C7.6581656 11.02550319 5.5772427 11.88285636 2 14 C1.34 14 0.68 14 0 14 C-3.08333333 9.88888889 -3.08333333 9.88888889 -2.8125 7 C-2.544375 6.34 -2.27625 5.68 -2 5 C-1.4740625 3.63875 -1.4740625 3.63875 -0.9375 2.25 C-0.4734375 1.13625 -0.4734375 1.13625 0 0 Z " fill="#926C56" transform="translate(43,49)"/>
<path d="M0 0 C0.66 0.66 1.32 1.32 2 2 C1.9765625 4.6015625 1.9765625 4.6015625 1.625 7.625 C1.51414062 8.62789062 1.40328125 9.63078125 1.2890625 10.6640625 C1.19367188 11.43492188 1.09828125 12.20578125 1 13 C-2.2542015 10.16569547 -3.5206753 8.31392226 -4 4 C-2.68 3.67 -1.36 3.34 0 3 C0 2.01 0 1.02 0 0 Z " fill="#99744E" transform="translate(81,33)"/>
<path d="M0 0 C0.66 0 1.32 0 2 0 C3.26092312 7.70185475 2.5832711 14.38459684 1 22 C0.34 22 -0.32 22 -1 22 C-1.05437607 20.41705218 -1.09296271 18.83355744 -1.125 17.25 C-1.14820312 16.36828125 -1.17140625 15.4865625 -1.1953125 14.578125 C-0.9902402 11.87117062 -0.228275 10.37397689 1 8 C0.67 7.34 0.34 6.68 0 6 C-0.039992 4.00039988 -0.04346799 1.99952758 0 0 Z " fill="#AD825D" transform="translate(82,62)"/>
<path d="M0 0 C-2 3 -2 3 -4.1640625 3.51171875 C-4.97617187 3.56972656 -5.78828125 3.62773438 -6.625 3.6875 C-7.85089844 3.78611328 -7.85089844 3.78611328 -9.1015625 3.88671875 C-9.72804688 3.92410156 -10.35453125 3.96148437 -11 4 C-11.33 3.01 -11.66 2.02 -12 1 C-7.67265609 -1.22923777 -4.71599818 -0.92470553 0 0 Z " fill="#A48E78" transform="translate(23,53)"/>
<path d="M0 0 C3.96 0 7.92 0 12 0 C12.33 1.65 12.66 3.3 13 5 C12.34 5 11.68 5 11 5 C10.67 4.34 10.34 3.68 10 3 C6.7 3 3.4 3 0 3 C0 2.01 0 1.02 0 0 Z " fill="#C7A37F" transform="translate(0,46)"/>
<path d="M0 0 C0.66 2.97 1.32 5.94 2 9 C0.68 9 -0.64 9 -2 9 C-2.45375 8.05125 -2.9075 7.1025 -3.375 6.125 C-4.80238254 2.99686321 -4.80238254 2.99686321 -7 1 C-2.25 0 -2.25 0 0 0 Z " fill="#C89C75" transform="translate(29,77)"/>
<path d="M0 0 C0.99 0.33 1.98 0.66 3 1 C1.8553125 2.0828125 1.8553125 2.0828125 0.6875 3.1875 C-1.71133591 5.69790967 -3.35410221 7.96808302 -5 11 C-6.32 10.34 -7.64 9.68 -9 9 C-9 8.34 -9 7.68 -9 7 C-7.13671875 5.23828125 -7.13671875 5.23828125 -4.6875 3.3125 C-3.48673828 2.34763672 -3.48673828 2.34763672 -2.26171875 1.36328125 C-1.51535156 0.91339844 -0.76898438 0.46351562 0 0 Z " fill="#D1B597" transform="translate(75,14)"/>
<path d="M0 0 C3.63 0 7.26 0 11 0 C11 0.33 11 0.66 11 1 C8.36 1.33 5.72 1.66 3 2 C2.67 2.99 2.34 3.98 2 5 C2.99 5 3.98 5 5 5 C5 5.99 5 6.98 5 8 C4.34 8 3.68 8 3 8 C2.67 9.32 2.34 10.64 2 12 C1.47026689 10.37787941 0.95146893 8.75218416 0.4375 7.125 C0.14746094 6.22007813 -0.14257812 5.31515625 -0.44140625 4.3828125 C-1 2 -1 2 0 0 Z " fill="#E6D2B7" transform="translate(43,15)"/>
<path d="M0 0 C1.98 0.99 1.98 0.99 4 2 C3.01 2.33 2.02 2.66 1 3 C1 3.66 1 4.32 1 5 C1.61875 5.226875 2.2375 5.45375 2.875 5.6875 C5 7 5 7 5.9375 9.375 C7.27448384 12.67813656 9.13649309 13.96540299 12 16 C8.62537285 15.45276317 6.91765 14.9451 4 13 C2.38214873 10.36034793 2 9.15987325 2 6 C1.34 6 0.68 6 0 6 C0 4.02 0 2.04 0 0 Z " fill="#866347" transform="translate(27,71)"/>
<path d="M0 0 C0.99 0 1.98 0 3 0 C3.66 1.65 4.32 3.3 5 5 C6.98 5 8.96 5 11 5 C11 5.66 11 6.32 11 7 C5.70769231 9.21538462 5.70769231 9.21538462 2.125 8.125 C1.42375 7.75375 0.7225 7.3825 0 7 C0 4.69 0 2.38 0 0 Z " fill="#D0C8B8" transform="translate(23,44)"/>
<path d="M0 0 C0.99 0.33 1.98 0.66 3 1 C2.34 4.3 1.68 7.6 1 11 C0.01 11 -0.98 11 -2 11 C-2.19622241 6.78121808 -1.80230168 3.82989106 0 0 Z " fill="#CCBCA7" transform="translate(74,48)"/>
<path d="M0 0 C0.66 2.31 1.32 4.62 2 7 C-0.49092811 8.24546405 -1.41080733 7.7767578 -4 7 C-4 6.01 -4 5.02 -4 4 C-4.66 3.67 -5.32 3.34 -6 3 C-4.60722783 0.21445565 -3.01148006 0 0 0 Z " fill="#B5916E" transform="translate(76,25)"/>
<path d="M0 0 C0.33 1.32 0.66 2.64 1 4 C0.401875 4.103125 -0.19625 4.20625 -0.8125 4.3125 C-3.0652515 4.81199129 -3.0652515 4.81199129 -4.3125 6.5 C-6.57566332 8.51170073 -8.2006411 8.49354812 -11.1875 8.6875 C-12.08855469 8.75324219 -12.98960938 8.81898437 -13.91796875 8.88671875 C-14.94857422 8.94279297 -14.94857422 8.94279297 -16 9 C-12.99382731 5.99382731 -10.17618402 6.40414684 -6 6 C-5.67 5.01 -5.34 4.02 -5 3 C-3.67696283 2.6278958 -2.34262065 2.29369827 -1 2 C-0.67 1.34 -0.34 0.68 0 0 Z " fill="#6D4627" transform="translate(72,81)"/>
<path d="M0 0 C0 0.66 0 1.32 0 2 C0.66 2 1.32 2 2 2 C2 2.66 2 3.32 2 4 C1.01 4 0.02 4 -1 4 C-1 4.66 -1 5.32 -1 6 C-1.99 6.33 -2.98 6.66 -4 7 C-4 6.34 -4 5.68 -4 5 C-4.66 5 -5.32 5 -6 5 C-6 3.68 -6 2.36 -6 1 C-4 0 -4 0 0 0 Z " fill="#CEC9BF" transform="translate(24,68)"/>
<path d="M0 0 C0.804375 0.4640625 0.804375 0.4640625 1.625 0.9375 C4.3984957 2.17827439 7.00042837 2.5909675 10 3 C10 4.32 10 5.64 10 7 C10.66 7.33 11.32 7.66 12 8 C7.25 7.25 7.25 7.25 5 5 C4.67 5.99 4.34 6.98 4 8 C0 2.25 0 2.25 0 0 Z " fill="#958675" transform="translate(25,55)"/>
<path d="M0 0 C0.33 0.66 0.66 1.32 1 2 C2.32 2 3.64 2 5 2 C5.33 4.31 5.66 6.62 6 9 C4.35 8.67 2.7 8.34 1 8 C0.67 5.36 0.34 2.72 0 0 Z " fill="#B7A291" transform="translate(34,54)"/>
<path d="M0 0 C0.33 0.99 0.66 1.98 1 3 C0.67 3.33 0.34 3.66 0 4 C2.97 4.33 5.94 4.66 9 5 C9 5.33 9 5.66 9 6 C8.15695313 6.13277344 7.31390625 6.26554687 6.4453125 6.40234375 C5.34960938 6.57894531 4.25390625 6.75554688 3.125 6.9375 C1.48917969 7.19853516 1.48917969 7.19853516 -0.1796875 7.46484375 C-2.93821546 7.85551159 -2.93821546 7.85551159 -5 9 C-5 7.68 -5 6.36 -5 5 C-4.34 5 -3.68 5 -3 5 C-2.67 4.01 -2.34 3.02 -2 2 C-1.34 2 -0.68 2 0 2 C0 1.34 0 0.68 0 0 Z " fill="#A07B5D" transform="translate(79,13)"/>
<path d="M0 0 C0.99 0 1.98 0 3 0 C2.25 6.75 2.25 6.75 0 9 C-0.66 8.67 -1.32 8.34 -2 8 C-2 6.02 -2 4.04 -2 2 C-1.34 2 -0.68 2 0 2 C0 1.34 0 0.68 0 0 Z " fill="#90775B" transform="translate(70,44)"/>
<path d="M0 0 C1.98 0 3.96 0 6 0 C6 0.33 6 0.66 6 1 C4.35 1 2.7 1 1 1 C1 1.99 1 2.98 1 4 C2.65 4.33 4.3 4.66 6 5 C6.33 5.99 6.66 6.98 7 8 C5.68 8.33 4.36 8.66 3 9 C3 8.34 3 7.68 3 7 C1.68 7.33 0.36 7.66 -1 8 C-0.67 5.36 -0.34 2.72 0 0 Z " fill="#A0958F" transform="translate(53,28)"/>
<path d="M0 0 C-0.99 0.495 -0.99 0.495 -2 1 C-2.69040574 2.65697379 -3.3530635 4.3255761 -4 6 C-4.97236487 7.6829392 -5.96564444 9.35443434 -7 11 C-7.66 10.67 -8.32 10.34 -9 10 C-8.01 8.02 -7.02 6.04 -6 4 C-6.66 3.67 -7.32 3.34 -8 3 C-5.53387212 -0.1151089 -3.89156016 -0.31553191 0 0 Z " fill="#C8A786" transform="translate(32,19)"/>
<path d="M0 0 C1.4540625 0.0309375 1.4540625 0.0309375 2.9375 0.0625 C3.5975 1.3825 4.2575 2.7025 4.9375 4.0625 C1.9675 4.0625 -1.0025 4.0625 -4.0625 4.0625 C-4.0625 0.08290816 -4.0625 0.08290816 0 0 Z " fill="#D3A87B" transform="translate(42.0625,91.9375)"/>
<path d="M0 0 C0.66 0 1.32 0 2 0 C4.60018816 3.90028225 4.15085514 7.47434569 4 12 C3.01 12.495 3.01 12.495 2 13 C2.33 10.69 2.66 8.38 3 6 C2.01 6 1.02 6 0 6 C-0.33 6.66 -0.66 7.32 -1 8 C-1.125 2.25 -1.125 2.25 0 0 Z " fill="#A08C72" transform="translate(70,38)"/>
<path d="M0 0 C1.5 1 1.5 1 3 3 C3.27345479 5.71846235 3.13491285 8.25677199 3 11 C1.35 11 -0.3 11 -2 11 C-2 10.01 -2 9.02 -2 8 C-1.34 7.67 -0.68 7.34 0 7 C0 4.69 0 2.38 0 0 Z " fill="#DDDAD7" transform="translate(57,17)"/>
<path d="M0 0 C0.99 0.33 1.98 0.66 3 1 C2.34 1 1.68 1 1 1 C1 3.31 1 5.62 1 8 C-5.625 8.25 -5.625 8.25 -9 6 C-9 5.34 -9 4.68 -9 4 C-8.34 4 -7.68 4 -7 4 C-7 4.66 -7 5.32 -7 6 C-5.02 5.67 -3.04 5.34 -1 5 C-0.67 3.35 -0.34 1.7 0 0 Z " fill="#9A8572" transform="translate(26,70)"/>
<path d="M0 0 C0.99 0.33 1.98 0.66 3 1 C2.34 1 1.68 1 1 1 C1 1.66 1 2.32 1 3 C-2.37097383 4.49821059 -4.20442119 5 -8 5 C-8 5.66 -8 6.32 -8 7 C-8.99 7.33 -9.98 7.66 -11 8 C-10.34 6.35 -9.68 4.7 -9 3 C-6.69 3 -4.38 3 -2 3 C-2 2.34 -2 1.68 -2 1 C-1.34 0.67 -0.68 0.34 0 0 Z " fill="#8F6D48" transform="translate(59,62)"/>
<path d="M0 0 C0.66 0.33 1.32 0.66 2 1 C2 2.32 2 3.64 2 5 C1.34 5 0.68 5 0 5 C0 8.3 0 11.6 0 15 C-0.33 15 -0.66 15 -1 15 C-1 12.03 -1 9.06 -1 6 C-2.32 5.67 -3.64 5.34 -5 5 C-4.34 5 -3.68 5 -3 5 C-3 4.34 -3 3.68 -3 3 C-2.01 3 -1.02 3 0 3 C0 2.01 0 1.02 0 0 Z " fill="#BBAA98" transform="translate(69,31)"/>
<path d="M0 0 C0 0.66 0 1.32 0 2 C-0.66 2 -1.32 2 -2 2 C-2.33 3.32 -2.66 4.64 -3 6 C-4.32 5.34 -5.64 4.68 -7 4 C-6.6875 2.0625 -6.6875 2.0625 -6 0 C-3 -1 -3 -1 0 0 Z " fill="#A88C6E" transform="translate(67,25)"/>
<path d="M0 0 C2.475 0.495 2.475 0.495 5 1 C5 1.66 5 2.32 5 3 C5.99 3.33 6.98 3.66 8 4 C7.41196203 7.02419525 6.77321882 10.01758453 6 13 C5.34 12.67 4.68 12.34 4 12 C4.03255208 9.98177083 4.06510417 7.96354167 4.09765625 5.9453125 C4.12649242 3.91814596 4.12649242 3.91814596 3 2 C2.01 1.34 1.02 0.68 0 0 Z " fill="#C4B09C" transform="translate(55,16)"/>
<path d="M0 0 C0.99 0.33 1.98 0.66 3 1 C0.9375 3.5 0.9375 3.5 -2 6 C-5.8125 6.3125 -5.8125 6.3125 -9 6 C-8.67 5.01 -8.34 4.02 -8 3 C-7.67 3.33 -7.34 3.66 -7 4 C-4.08482708 2.92598892 -2.22189824 2.22189824 0 0 Z " fill="#806446" transform="translate(55,77)"/>
<path d="M0 0 C-0.6875 2.4375 -0.6875 2.4375 -2 5 C-4.625 5.8125 -4.625 5.8125 -7 6 C-6.67 4.02 -6.34 2.04 -6 0 C-2.25 -1.125 -2.25 -1.125 0 0 Z " fill="#9E7E60" transform="translate(57,67)"/>
<path d="M0 0 C0 0.99 0 1.98 0 3 C-0.66 3 -1.32 3 -2 3 C-1.67 4.32 -1.34 5.64 -1 7 C-3.64 7.33 -6.28 7.66 -9 8 C-8.34 7.01 -7.68 6.02 -7 5 C-6.01 5 -5.02 5 -4 5 C-4 3.68 -4 2.36 -4 1 C-2 0 -2 0 0 0 Z " fill="#85684C" transform="translate(76,60)"/>
<path d="M0 0 C0.33 0 0.66 0 1 0 C1.125 2.375 1.125 2.375 1 5 C0.34 5.66 -0.32 6.32 -1 7 C-1.46006346 9.20250992 -1.46006346 9.20250992 -1.625 11.625 C-1.69976563 12.44226562 -1.77453125 13.25953125 -1.8515625 14.1015625 C-1.90054687 14.72804688 -1.94953125 15.35453125 -2 16 C-2.66 15.34 -3.32 14.68 -4 14 C-3.72753341 8.55066829 -2.7554642 4.79211165 0 0 Z " fill="#E3DFCF" transform="translate(27,25)"/>
<path d="M0 0 C2.97 0 5.94 0 9 0 C9.33 1.32 9.66 2.64 10 4 C3.25 3.125 3.25 3.125 1 2 C0.67 2.66 0.34 3.32 0 4 C0 2.68 0 1.36 0 0 Z " fill="#E5C59D" transform="translate(0,75)"/>
<path d="M0 0 C0.33 0 0.66 0 1 0 C1 4.29 1 8.58 1 13 C-0.32 12.67 -1.64 12.34 -3 12 C-2.34 12 -1.68 12 -1 12 C-1 10.35 -1 8.7 -1 7 C-1.66 6.67 -2.32 6.34 -3 6 C-2.34 5.34 -1.68 4.68 -1 4 C-0.3574765 1.93125966 -0.3574765 1.93125966 0 0 Z " fill="#946E4C" transform="translate(83,49)"/>
<path d="M0 0 C0.33 0 0.66 0 1 0 C1.042721 1.66611905 1.04063832 3.33382885 1 5 C0.67 5.33 0.34 5.66 0 6 C-0.23075082 7.34747084 -0.41153063 8.70377565 -0.5625 10.0625 C-0.706875 11.361875 -0.85125 12.66125 -1 14 C-2.65 14 -4.3 14 -6 14 C-5.525625 13.46375 -5.05125 12.9275 -4.5625 12.375 C-2.71813924 9.57157164 -2.37543153 7.30379742 -2 4 C-1.34 4 -0.68 4 0 4 C0 2.68 0 1.36 0 0 Z " fill="#D2B89C" transform="translate(20,33)"/>
<path d="M0 0 C-0.33 1.65 -0.66 3.3 -1 5 C-2.98 5 -4.96 5 -7 5 C-6.67 3.68 -6.34 2.36 -6 1 C-3.92446352 0.4465236 -2.15634036 0 0 0 Z " fill="#B7926F" transform="translate(88,24)"/>
<path d="M0 0 C2.97 0 5.94 0 9 0 C9 1.32 9 2.64 9 4 C8.34 4 7.68 4 7 4 C7 3.34 7 2.68 7 2 C4.69 2.66 2.38 3.32 0 4 C0 2.68 0 1.36 0 0 Z " fill="#C39A74" transform="translate(0,18)"/>
<path d="M0 0 C1.98 0 3.96 0 6 0 C6 0.66 6 1.32 6 2 C4.68 2 3.36 2 2 2 C3.65 3.98 5.3 5.96 7 8 C6.01 8.99 5.02 9.98 4 11 C4 9.68 4 8.36 4 7 C3.34 7 2.68 7 2 7 C0.5393715 4.35261084 0 3.10551666 0 0 Z " fill="#9D7487" transform="translate(34,41)"/>
<path d="M0 0 C0 0.99 0 1.98 0 3 C-0.66 3 -1.32 3 -2 3 C-2 3.66 -2 4.32 -2 5 C-3.65 5.33 -5.3 5.66 -7 6 C-7 5.01 -7 4.02 -7 3 C-6.34 3 -5.68 3 -5 3 C-5 2.34 -5 1.68 -5 1 C-2 0 -2 0 0 0 Z " fill="#B79F89" transform="translate(66,64)"/>
<path d="M0 0 C0.33 0 0.66 0 1 0 C1 2.31 1 4.62 1 7 C-0.98 7.99 -0.98 7.99 -3 9 C-3.33 7.35 -3.66 5.7 -4 4 C-3.01 4 -2.02 4 -1 4 C-0.67 2.68 -0.34 1.36 0 0 Z " fill="#B29A7F" transform="translate(67,46)"/>
<path d="M0 0 C0 0.66 0 1.32 0 2 C-0.9590625 2.1546875 -0.9590625 2.1546875 -1.9375 2.3125 C-2.618125 2.539375 -3.29875 2.76625 -4 3 C-4.33 3.99 -4.66 4.98 -5 6 C-5.99 6 -6.98 6 -8 6 C-8 5.34 -8 4.68 -8 4 C-8.66 3.67 -9.32 3.34 -10 3 C-8.70990357 2.49596232 -7.41786211 1.99690074 -6.125 1.5 C-5.04605469 1.08234375 -5.04605469 1.08234375 -3.9453125 0.65625 C-2 0 -2 0 0 0 Z " fill="#DADBD1" transform="translate(22,45)"/>
<path d="M0 0 C1.38076179 3.83544942 0.85712183 7.07152497 0 11 C-1.5625 12.9375 -1.5625 12.9375 -3 14 C-3.66 13.67 -4.32 13.34 -5 13 C-4.525625 12.608125 -4.05125 12.21625 -3.5625 11.8125 C-1.64820367 9.59191626 -1.38733012 7.86624291 -1 5 C-1.66 4.67 -2.32 4.34 -3 4 C-2.01 2.68 -1.02 1.36 0 0 Z " fill="#A6978B" transform="translate(62,36)"/>
<path d="M0 0 C0.99 0.33 1.98 0.66 3 1 C3 2.98 3 4.96 3 7 C3.66 7 4.32 7 5 7 C5.33 6.34 5.66 5.68 6 5 C6 6.32 6 7.64 6 9 C4.35 8.67 2.7 8.34 1 8 C0.67 5.36 0.34 2.72 0 0 Z " fill="#C0BABC" transform="translate(33,33)"/>
<path d="M0 0 C0.66 0.66 1.32 1.32 2 2 C4.06874034 2.6425235 4.06874034 2.6425235 6 3 C6.33 2.34 6.66 1.68 7 1 C7 1.99 7 2.98 7 4 C4.6875 5.75 4.6875 5.75 2 7 C1.01 6.67 0.02 6.34 -1 6 C-0.34 6 0.32 6 1 6 C1 5.01 1 4.02 1 3 C-0.32 3.33 -1.64 3.66 -3 4 C-2.67 3.34 -2.34 2.68 -2 2 C-1.34 2 -0.68 2 0 2 C0 1.34 0 0.68 0 0 Z " fill="#A78E76" transform="translate(65,61)"/>
<path d="M0 0 C0 0.99 0 1.98 0 3 C0.99 3.33 1.98 3.66 3 4 C-0.8063457 3.32829194 -4.35206816 2.27253436 -8 1 C-8.33 1.66 -8.66 2.32 -9 3 C-9.33 2.01 -9.66 1.02 -10 0 C-6.42355152 -1.2380014 -3.66305234 -0.74926071 0 0 Z " fill="#634B4A" transform="translate(46,43)"/>
<path d="M0 0 C0.268125 0.639375 0.53625 1.27875 0.8125 1.9375 C1.88667752 4.33131686 1.88667752 4.33131686 5 5 C2 7 2 7 -2 7 C-1.42415568 4.61435923 -0.77772405 2.33317216 0 0 Z " fill="#8D776A" transform="translate(48,39)"/>
<path d="M0 0 C1.65 0 3.3 0 5 0 C4.01 0.495 4.01 0.495 3 1 C3.7734375 1.8971875 3.7734375 1.8971875 4.5625 2.8125 C5.036875 3.534375 5.51125 4.25625 6 5 C5.67 5.99 5.34 6.98 5 8 C4.34 7.01 3.68 6.02 3 5 C0.94074861 4.27617533 0.94074861 4.27617533 -1 4 C-0.67 2.68 -0.34 1.36 0 0 Z " fill="#BAA181" transform="translate(63,20)"/>
<path d="M0 0 C0.66 0 1.32 0 2 0 C1.67 2.97 1.34 5.94 1 9 C0.34 9 -0.32 9 -1 9 C-1.625 6.1875 -1.625 6.1875 -2 3 C-1.34 2.01 -0.68 1.02 0 0 Z " fill="#D6C2AE" transform="translate(43,3)"/>
<path d="M0 0 C0.99 0 1.98 0 3 0 C3 0.66 3 1.32 3 2 C4.32 1.67 5.64 1.34 7 1 C6.67 2.32 6.34 3.64 6 5 C5.01 4.67 4.02 4.34 3 4 C2.67 4.66 2.34 5.32 2 6 C1.34 4.02 0.68 2.04 0 0 Z " fill="#8B7563" transform="translate(45,88)"/>
<path d="M0 0 C0.33 0.66 0.66 1.32 1 2 C3.52733235 2.65555119 3.52733235 2.65555119 6 3 C6 2.34 6 1.68 6 1 C6.99 1 7.98 1 9 1 C8.67 2.32 8.34 3.64 8 5 C6.02 5 4.04 5 2 5 C2 4.34 2 3.68 2 3 C1.34 3 0.68 3 0 3 C0 2.01 0 1.02 0 0 Z " fill="#B8AB9C" transform="translate(17,71)"/>
<path d="M0 0 C2.00720923 0.28674418 4.0085944 0.61866701 6 1 C5.01 1.495 5.01 1.495 4 2 C4 2.66 4 3.32 4 4 C2.35 3.67 0.7 3.34 -1 3 C-1.33 3.99 -1.66 4.98 -2 6 C-1.125 1.125 -1.125 1.125 0 0 Z " fill="#413E43" transform="translate(41,35)"/>
<path d="M0 0 C2.475 0.495 2.475 0.495 5 1 C5 2.32 5 3.64 5 5 C3.35 4.67 1.7 4.34 0 4 C0 2.68 0 1.36 0 0 Z " fill="#5F5453" transform="translate(40,22)"/>
<path d="M0 0 C0.33 0.99 0.66 1.98 1 3 C-1.31 3.66 -3.62 4.32 -6 5 C-6 4.01 -6 3.02 -6 2 C-3 0 -3 0 0 0 Z " fill="#97734C" transform="translate(58,57)"/>
<path d="M0 0 C0.99 0 1.98 0 3 0 C3 1.65 3 3.3 3 5 C1.35 5 -0.3 5 -2 5 C-1.125 1.125 -1.125 1.125 0 0 Z " fill="#E4CBAC" transform="translate(40,17)"/>
<path d="M0 0 C4.29 0 8.58 0 13 0 C13 0.66 13 1.32 13 2 C9.72814447 3.07310858 7.57052408 2.89263102 4.25 2.0625 C3.05117188 1.77052734 3.05117188 1.77052734 1.828125 1.47265625 C1.22484375 1.31667969 0.6215625 1.16070312 0 1 C0 0.67 0 0.34 0 0 Z " fill="#B89875" transform="translate(45,13)"/>
<path d="M0 0 C0.33 1.32 0.66 2.64 1 4 C2.32 4.33 3.64 4.66 5 5 C5 5.66 5 6.32 5 7 C2.36 7.33 -0.28 7.66 -3 8 C-2.34 7.34 -1.68 6.68 -1 6 C-0.60235737 4.01178687 -0.26224651 2.01055661 0 0 Z " fill="#684D32" transform="translate(44,80)"/>
<path d="M0 0 C0.66 0 1.32 0 2 0 C2 1.32 2 2.64 2 4 C3.65 4.33 5.3 4.66 7 5 C7 5.99 7 6.98 7 8 C6.01 7.67 5.02 7.34 4 7 C4 6.34 4 5.68 4 5 C2.68 5 1.36 5 0 5 C0 3.35 0 1.7 0 0 Z " fill="#AD9C8B" transform="translate(25,65)"/>
<path d="M0 0 C0.66 1.32 1.32 2.64 2 4 C-1.625 8.875 -1.625 8.875 -5 10 C-4.67 8.68 -4.34 7.36 -4 6 C-3.34 6 -2.68 6 -2 6 C-1.34 4.02 -0.68 2.04 0 0 Z " fill="#997A5B" transform="translate(53,53)"/>
<path d="M0 0 C2.97 0.495 2.97 0.495 6 1 C6 1.99 6 2.98 6 4 C4.35 4 2.7 4 1 4 C0.67 2.68 0.34 1.36 0 0 Z " fill="#3B1E26" transform="translate(38,44)"/>
<path d="M0 0 C2.4375 1.125 2.4375 1.125 5 3 C5.8125 6.1875 5.8125 6.1875 6 9 C5.01 8.67 4.02 8.34 3 8 C2.67 7.01 2.34 6.02 2 5 C1.34 4.67 0.68 4.34 0 4 C0 2.68 0 1.36 0 0 Z " fill="#9E8469" transform="translate(72,33)"/>
<path d="M0 0 C0.66 0 1.32 0 2 0 C2 1.32 2 2.64 2 4 C0.68 4 -0.64 4 -2 4 C-2 4.66 -2 5.32 -2 6 C-3.32 6.33 -4.64 6.66 -6 7 C-5.67 6.01 -5.34 5.02 -5 4 C-3.66666667 3.66666667 -2.33333333 3.33333333 -1 3 C-0.67 2.01 -0.34 1.02 0 0 Z " fill="#ECE2CF" transform="translate(34,18)"/>
<path d="M0 0 C0.66 0.33 1.32 0.66 2 1 C2 1.66 2 2.32 2 3 C3.32 3.33 4.64 3.66 6 4 C6 4.66 6 5.32 6 6 C3.03 5.505 3.03 5.505 0 5 C-0.5625 3.0625 -0.5625 3.0625 -1 1 C-0.67 0.67 -0.34 0.34 0 0 Z " fill="#766750" transform="translate(30,59)"/>
<path d="M0 0 C0.33 0.99 0.66 1.98 1 3 C3.8201938 4.71226052 6.92955871 5.8059395 10 7 C8 8 8 8 4.4375 6.875 C1 5 1 5 0.0625 2.3125 C0.041875 1.549375 0.02125 0.78625 0 0 Z " fill="#B98E67" transform="translate(30,81)"/>
<path d="M0 0 C2.64 0 5.28 0 8 0 C8 0.66 8 1.32 8 2 C6.68 2 5.36 2 4 2 C4 2.66 4 3.32 4 4 C3.01 3.67 2.02 3.34 1 3 C0.67 2.01 0.34 1.02 0 0 Z " fill="#AE8D68" transform="translate(72,32)"/>
<path d="M0 0 C2.0625 0.4375 2.0625 0.4375 4 1 C4 1.99 4 2.98 4 4 C3.34 4 2.68 4 2 4 C1.67 5.32 1.34 6.64 1 8 C0.34 5.69 -0.32 3.38 -1 1 C-0.67 0.67 -0.34 0.34 0 0 Z " fill="#E6E5E2" transform="translate(44,19)"/>
<path d="M0 0 C0.66 0 1.32 0 2 0 C2.33 1.98 2.66 3.96 3 6 C3.99 6.33 4.98 6.66 6 7 C4.35 6.67 2.7 6.34 1 6 C0.67 4.02 0.34 2.04 0 0 Z " fill="#8A6C4A" transform="translate(41,65)"/>
<path d="M0 0 C0.99 0.495 0.99 0.495 2 1 C2 1.99 2 2.98 2 4 C2.99 4.33 3.98 4.66 5 5 C5 5.66 5 6.32 5 7 C3.35 6.67 1.7 6.34 0 6 C0 4.02 0 2.04 0 0 Z " fill="#CCC2B6" transform="translate(27,63)"/>
<path d="M0 0 C0.66 1.32 1.32 2.64 2 4 C2.66 4 3.32 4 4 4 C4 4.99 4 5.98 4 7 C2.68 7 1.36 7 0 7 C0 4.69 0 2.38 0 0 Z " fill="#CB92AF" transform="translate(34,44)"/>
<path d="M0 0 C0.70125 0.309375 1.4025 0.61875 2.125 0.9375 C5.08936657 2.03302678 7.87698108 2.56422992 11 3 C11 3.33 11 3.66 11 4 C3.52908757 5.34721372 3.52908757 5.34721372 1 3.6875 C0 2 0 2 0 0 Z " fill="#B3ABA8" transform="translate(48,37)"/>
<path d="M0 0 C1.98 0 3.96 0 6 0 C6 0.99 6 1.98 6 3 C4.02 3 2.04 3 0 3 C0 2.01 0 1.02 0 0 Z " fill="#3A2E2E" transform="translate(54,29)"/>
<path d="M0 0 C0.33 1.32 0.66 2.64 1 4 C-1.31 4 -3.62 4 -6 4 C-5.67 3.01 -5.34 2.02 -5 1 C-2 0 -2 0 0 0 Z " fill="#BA9875" transform="translate(76,25)"/>
<path d="M0 0 C0 1.32 0 2.64 0 4 C-1.65 3.67 -3.3 3.34 -5 3 C-5 2.34 -5 1.68 -5 1 C-3 0 -3 0 0 0 Z " fill="#BBA690" transform="translate(71,60)"/>
<path d="M0 0 C2.475 0.99 2.475 0.99 5 2 C5 2.33 5 2.66 5 3 C3.02 3 1.04 3 -1 3 C-1 4.65 -1 6.3 -1 8 C-1.33 8 -1.66 8 -2 8 C-2.125 5.125 -2.125 5.125 -2 2 C-1.34 1.34 -0.68 0.68 0 0 Z " fill="#EAEAE3" transform="translate(27,30)"/>
</svg>
